<svg width="119" height="109" viewBox="0 0 119 109" fill="none" xmlns="http://www.w3.org/2000/svg">
<path d="M60.7872 67.5618C61.1162 65.5257 61.1226 63.9705 61.6452 62.6234C62.6039 60.1407 63.9414 57.8122 64.9859 55.3678C66.8183 51.092 68.461 46.7316 70.3546 42.4832C71.425 40.0797 72.5741 37.6304 74.1606 35.5674C76.0214 33.1491 79.0296 32.6758 81.3271 33.8258C83.864 35.0974 85.065 38.0144 84.0217 41.2679C83.3563 43.3523 82.4781 45.5035 81.1633 47.2173C76.9812 52.6644 72.5849 57.9497 68.1913 63.2289C67.0666 64.5792 65.7548 65.8387 64.3267 66.8478C63.5841 67.3838 62.3865 67.2758 60.7872 67.5618Z" fill="#FF8C35"/>
<path d="M29.0861 68.5367C28.6063 68.7931 28.0521 69.3176 27.5062 69.3092C26.9421 69.2927 26.1479 68.9017 25.8805 68.4296C25.2312 67.28 24.7478 66.0206 24.3418 64.7517C21.9714 57.322 19.6127 49.8828 17.3367 42.4217C16.8919 40.9591 16.6025 39.3601 16.6736 37.841C16.811 34.9625 18.9634 32.5641 21.4414 32.0967C23.8868 31.6369 26.6136 33.2578 27.8239 35.9218C28.1003 36.5229 28.3516 37.1642 28.4593 37.8149C30.0107 47.312 30.7695 56.8449 29.6618 66.4564C29.5929 67.1092 29.316 67.7354 29.0861 68.5367Z" fill="#FF8C35"/>
<path d="M101.739 70.2727C100.954 70.9881 99.8111 72.4625 98.3183 73.3032C92.9052 76.3638 87.3819 79.2279 81.8773 82.1152C81.1047 82.5202 80.1994 82.7116 79.3315 82.8682C78.2353 83.0773 76.9364 83.1814 76.5236 81.8948C76.3036 81.216 76.7435 80.2216 77.1053 79.4864C77.3823 78.9264 78.0018 78.5193 78.5031 78.0815C83.374 73.8604 88.2129 69.5958 93.1601 65.4675C94.4931 64.3574 96.0889 63.4669 97.7056 62.8432C99.1957 62.2734 100.801 62.5044 101.913 63.9488C102.94 65.2888 103.19 66.7602 102.58 68.3548C102.42 68.7831 102.222 69.1801 101.739 70.2727Z" fill="#FF8C35"/>
</svg>
