<svg width="142" height="146" viewBox="0 0 142 146" fill="none" xmlns="http://www.w3.org/2000/svg">
<g clip-path="url(#clip0_20_35343)">
<path d="M82.3883 80.3796C80.9211 78.8225 79.6454 77.8355 78.8675 76.5534C77.4312 74.194 76.3614 71.619 75.0108 69.2129C72.6517 64.9997 70.103 60.8899 67.8051 56.6434C66.5045 54.2417 65.2162 51.7461 64.5223 49.1329C63.7096 46.0687 65.2234 43.2841 67.6232 42.1114C70.2746 40.8176 73.4347 41.6665 75.4519 44.5823C76.7461 46.4478 77.9605 48.5314 78.539 50.6997C80.3752 57.594 81.943 64.563 83.5073 71.5261C83.9068 73.3078 84.1133 75.1869 84.0402 77.004C84.0114 77.956 83.1648 78.8775 82.3883 80.3796Z" fill="#FF8C35"/>
<path d="M63.1339 107.192C63.0414 107.751 63.1223 108.54 62.77 108.986C62.3995 109.441 61.5753 109.851 61.0176 109.774C59.6609 109.585 58.3188 109.189 57.0177 108.724C49.4044 105.993 41.7907 103.246 34.2113 100.417C32.7263 99.8618 31.2275 99.0916 30.0225 98.074C27.7408 96.1434 27.129 92.8508 28.3122 90.5081C29.481 88.1971 32.5399 86.9669 35.4977 87.6483C36.1672 87.7993 36.8538 87.9964 37.4575 88.3182C46.2538 93.0309 54.5782 98.4212 61.7863 105.404C62.2799 105.872 62.6199 106.497 63.1339 107.192Z" fill="#FF8C35"/>
<path d="M110.528 48.2498C110.62 49.3504 111.11 51.2252 110.857 52.9894C109.951 59.3945 108.813 65.7667 107.707 72.138C107.551 73.032 107.136 73.901 106.716 74.717C106.194 75.7549 105.458 76.8939 104.138 76.4229C103.441 76.1763 102.901 75.1851 102.525 74.422C102.239 73.8397 102.296 73.0707 102.253 72.3801C101.861 65.6906 101.413 58.9999 101.146 52.3059C101.076 50.5036 101.353 48.6228 101.863 46.8931C102.337 45.3021 103.542 44.1216 105.434 44.1141C107.186 44.1117 108.556 44.8332 109.482 46.3441C109.733 46.7465 109.935 47.1605 110.528 48.2498Z" fill="#FF8C35"/>
</g>
<defs>
<clipPath id="clip0_20_35343">
<rect width="111.367" height="98.5167" fill="white" transform="translate(0 96.4463) rotate(-60)"/>
</clipPath>
</defs>
</svg>
