<svg width="174" height="125" viewBox="0 0 174 125" fill="none" xmlns="http://www.w3.org/2000/svg">
<path d="M1.4043 123.106C2.45982 110.977 10.7353 98.5254 24.2796 97.5692C34.6466 96.8379 45.3477 102.839 53.1223 108.773C54.4055 109.752 64.6968 118.155 58.0098 120.131C45.782 123.742 36.6798 114.373 33.6962 103.404C29.263 87.1065 35.2787 71.0418 47.46 59.6246C62.5712 45.4614 88.4718 32.6888 108.703 42.8518C118.136 47.5908 122.742 54.0227 125.387 63.9618C127.493 71.8743 128.607 81.7771 121.913 88.2237C110.897 98.8332 97.7887 88.4054 92.0473 77.8978C80.4127 56.6058 89.6135 26.9914 111.077 15.8292C129.904 6.03828 151.636 2.70897 172.583 1.41211" stroke="#2CACE2" stroke-width="3" stroke-linecap="round"/>
</svg>
