<svg width="139" height="114" viewBox="0 0 139 114" fill="none" xmlns="http://www.w3.org/2000/svg">
<path opacity="0.3" d="M53.409 50.6237C65.2979 44.3497 76.5547 37.9064 88.281 32.4075C97.3694 28.1573 106.939 24.8092 116.463 21.6308C120.83 20.1633 125.64 19.4056 130.246 19.4117C137.807 19.3457 140.768 24.1412 137.812 31.126C136.606 33.941 134.849 36.7901 132.661 38.887C122.841 48.3986 113.154 58.0824 102.731 66.9775C88.7365 78.9178 74.2659 90.2756 59.8066 101.592C54.9395 105.426 49.4928 108.56 44.0997 111.663C37.1011 115.7 30.601 114.504 25.8355 107.679C21.3696 101.252 17.4731 94.3864 13.9704 87.3994C7.10743 73.7363 1.20417 59.6935 0.285184 44.0751C-0.304532 34.1391 -0.0594927 24.2904 3.3027 14.7768C6.65355 5.30544 13.9478 0.165209 23.5606 0.194221C28.9393 0.180087 32.8821 2.82833 36.2957 6.60816C41.3797 12.2454 43.8758 19.2812 46.1497 26.303C48.7555 34.2778 50.9865 42.4706 53.409 50.6237ZM131.932 28.4591C131.563 27.8145 131.205 27.1272 130.835 26.4826C128.291 26.7103 125.572 26.5729 123.166 27.2926C115.894 29.4828 108.611 31.7154 101.594 34.4739C86.5573 40.3592 72.3171 47.8223 58.812 56.7557C56.4542 58.3069 55.0268 59.9255 55.3038 63.2743C55.6485 67.5506 54.8072 67.8254 50.1469 67.3498C49.2278 67.24 48.0491 67.4245 47.3729 67.9254C45.7835 69.1369 43.8832 69.992 42.7527 68.1427C41.8797 66.6808 41.996 64.3927 42.2936 62.6078C42.4741 61.4283 43.6079 60.2312 44.5664 59.3511C46.3001 57.7691 46.4908 56.0466 45.8532 53.8746C42.8079 43.3262 40.0074 32.7069 36.7593 22.2406C35.7204 18.8697 33.8318 15.6349 31.7988 12.7707C26.2767 5.06051 18.126 4.9686 12.3851 12.5715C10.7029 14.804 9.51633 17.7151 8.83084 20.442C6.79833 29.0386 6.43549 37.8098 7.76831 46.4895C10.8167 66.6349 19.6585 84.3757 30.6989 101.159C30.8334 101.332 30.9564 101.547 31.0909 101.719C34.9286 106.613 36.5301 107.043 41.813 104.183C44.5614 102.691 47.2907 101.103 49.7815 99.2238C75.158 80.3732 99.6742 60.519 122.492 38.5727C125.853 35.471 128.81 31.852 131.932 28.4591Z" fill="#FF6854"/>
</svg>
