<svg width="165" height="189" viewBox="0 0 165 189" fill="none" xmlns="http://www.w3.org/2000/svg">
<path fill-rule="evenodd" clip-rule="evenodd" d="M86.1338 111.274C85.7671 110.527 85.5269 109.687 85.2876 108.848C83.7703 104.488 81.9386 99.4496 81.92 94.7231C81.9455 88.4878 84.1815 84.3963 87.5989 81.8686C92.4115 78.3149 99.9696 78.1364 106.629 80.6846C113.255 83.1889 119.033 88.2269 120.791 94.4727C122.031 98.7266 121.397 103.634 117.784 108.777C113.722 114.63 107.476 117.069 100.592 117.358C97.9473 117.513 95.3737 117.239 92.6917 116.823C93.8603 119.154 95.0436 121.505 96.2493 123.885C100.425 131.504 105.62 138.905 111.219 145.536C118.505 154.399 126.999 161.726 136.901 167.524C137.743 168.116 138.041 169.295 137.53 170.186C137.018 171.076 135.859 171.368 134.892 170.871C124.612 164.835 115.732 157.258 108.176 148.036C102.55 141.109 97.073 133.594 92.8717 125.68C91.1655 122.376 89.4999 119.127 87.9848 115.814C82.2834 114.273 76.8978 111.844 72.8594 109.37C46.295 92.4809 33.7961 52.1619 28.9993 22.3012C28.8126 21.2704 29.4782 20.3218 30.5299 20.147C31.5825 19.9735 32.5329 20.7096 32.7196 21.7404C37.3763 50.6318 49.1905 89.7851 74.9326 106.108C77.9603 108.027 81.9152 109.868 86.1338 111.274ZM90.8209 112.516C90.057 110.983 89.4246 109.363 88.9214 107.652C87.6252 103.585 85.778 99.0495 85.6998 94.7665C85.704 90.0702 87.2525 86.8944 89.784 85.0221C93.8352 82.0276 99.8899 82.2092 105.224 84.3097C110.717 86.358 115.687 90.326 117.06 95.5403C117.991 98.862 117.451 102.59 114.709 106.533C111.29 111.41 106.04 113.338 100.451 113.513C97.233 113.693 93.9691 113.289 90.8209 112.516Z" fill="#2CACE2"/>
<path fill-rule="evenodd" clip-rule="evenodd" d="M30.3303 20.9314C30.0371 21.8493 29.9099 22.9869 29.7837 24.1258C29.4923 26.3522 29.3842 28.5604 28.9181 30.0329C26.2069 38.9812 22.8441 49.6782 17.4236 57.3899C16.8662 58.2192 15.6538 58.4424 14.7954 57.8281C13.9379 57.2152 13.6627 56.0677 14.3457 55.1435C19.4596 47.8094 22.5698 37.5596 25.2892 28.8833C25.7117 27.353 25.8594 24.6769 26.1271 22.4191C26.419 20.4548 26.881 18.7151 27.7687 17.5396C28.226 16.8391 29.5464 16.2365 31.3684 17.0818C33.8876 18.3277 38.9725 23.2306 39.5051 23.6747C44.8846 28.1855 49.7685 32.0408 57.1456 31.8827C58.1484 31.9045 58.9977 32.7684 59.136 33.7351C59.1487 34.7967 58.2573 35.7067 57.2535 35.6836C48.884 35.8337 43.0621 31.7813 36.9802 26.6015C36.6804 26.2045 33.6647 23.2563 31.1643 21.5128C30.8499 21.3577 30.6419 21.0828 30.3303 20.9314Z" fill="#2CACE2"/>
</svg>
