<svg width="89" height="70" viewBox="0 0 89 70" fill="none" xmlns="http://www.w3.org/2000/svg">
<g clip-path="url(#clip0_20_10792)">
<path fill-rule="evenodd" clip-rule="evenodd" d="M29.812 54.1021C23.5018 54.5193 17.0311 54.494 11.0944 56.8708C10.7406 57.011 10.3356 56.8457 10.1881 56.4975C10.0433 56.1497 10.2098 55.7531 10.5636 55.6101C16.6391 53.1784 23.2552 53.1707 29.7121 52.7441C30.0938 52.7171 30.427 53.0028 30.4536 53.3776C30.4831 53.7524 30.1937 54.0751 29.812 54.1021Z" fill="#FF8C35"/>
<path fill-rule="evenodd" clip-rule="evenodd" d="M29.9389 45.0751C27.8824 43.3801 25.6678 42.139 23.0375 41.5887C22.6617 41.5104 22.422 41.1487 22.4983 40.7816C22.5775 40.4143 22.9462 40.1799 23.3192 40.2583C26.1794 40.8563 28.5902 42.1929 30.8259 44.0347C31.1208 44.2767 31.1614 44.7062 30.9146 44.9935C30.6705 45.2803 30.231 45.3172 29.9389 45.0751Z" fill="#FF8C35"/>
<path fill-rule="evenodd" clip-rule="evenodd" d="M34.4659 25.4271C33.414 22.4275 31.5193 20.1264 28.7098 18.5257C28.3786 18.3368 28.2637 17.92 28.456 17.5956C28.6455 17.2712 29.0703 17.1611 29.4015 17.3501C32.5108 19.1224 34.6118 21.6687 35.7766 24.9899C35.9023 25.3452 35.7075 25.7322 35.3471 25.8526C34.9839 25.9734 34.5888 25.7826 34.4659 25.4271Z" fill="#FF8C35"/>
<path fill-rule="evenodd" clip-rule="evenodd" d="M65.3797 19.985C65.9472 20.5828 66.4623 21.2312 66.9068 21.9258C67.1053 22.235 67.4597 22.8951 67.5379 23.4706C67.6233 24.0837 67.4357 24.612 66.9007 24.9087C66.19 25.3022 65.6065 25.2891 65.1472 25.0888C64.7044 24.8963 64.3463 24.4967 64.1061 23.9506C63.6466 22.9068 63.6281 21.2827 63.7961 20.3483C63.1942 19.7919 62.5398 19.292 61.8435 18.8523C56.6597 15.5785 49.3692 17.1757 43.9666 22.6285C42.0758 24.5376 41.3111 28.4111 41.0182 32.5678C40.5612 39.0398 41.3544 46.2132 41.5187 48.3177C41.5581 48.8374 41.5234 49.1483 41.4987 49.2112C41.3834 49.5201 41.1574 49.6087 40.9982 49.6454C40.7676 49.6961 40.5799 49.6604 40.4266 49.5906C40.2193 49.4948 40.0441 49.3181 39.9526 49.0378C39.9034 48.883 39.8817 48.6655 39.8758 48.4328C39.8734 48.2714 39.898 48.0938 39.8591 47.9797C39.6068 47.2489 39.311 46.5373 39.0205 45.8204C38.0502 43.4101 36.8382 41.1642 35.5044 38.9262C31.2673 31.8149 27.1374 24.2864 20.5036 19.0128C20.2061 18.7761 20.1573 18.3473 20.3984 18.0559C20.6366 17.7647 21.073 17.7206 21.3732 17.9574C28.1398 23.3351 32.3787 30.9917 36.7005 38.2437C37.8346 40.1475 38.8831 42.0576 39.7753 44.0643C39.518 40.4586 39.3034 35.4616 39.7596 31.0128C40.165 27.0562 41.1329 23.5337 42.9708 21.6778C48.8891 15.7043 56.9127 14.1228 62.5896 17.7096C63.1971 18.0936 63.7784 18.5195 64.3229 18.9851C66.9454 13.773 72.9939 11.4721 78.5474 13.6764C78.9043 13.8175 79.0764 14.2144 78.9353 14.5623C78.7914 14.9103 78.3886 15.0782 78.0321 14.9372C73.0279 12.951 67.5704 15.1442 65.3797 19.985ZM65.0615 21.7062C65.3013 22.0077 65.5247 22.3213 65.7351 22.6465C65.8464 22.821 66.0401 23.1573 66.1317 23.4907C66.1523 23.5689 66.1608 23.6921 66.1636 23.7492C65.9772 23.8498 65.8298 23.9007 65.7051 23.8458C65.5488 23.7782 65.4629 23.6076 65.3784 23.4164C65.1664 22.9367 65.0736 22.2928 65.0615 21.7062Z" fill="#FF8C35"/>
</g>
<defs>
<clipPath id="clip0_20_10792">
<rect width="79" height="56" fill="white" transform="translate(10.4619 0.566895) rotate(10)"/>
</clipPath>
</defs>
</svg>
