<svg width="191" height="234" viewBox="0 0 191 234" fill="none" xmlns="http://www.w3.org/2000/svg">
<path d="M149.843 143.206C126.424 138.431 105.771 123.495 94.1117 102.572C82.4281 81.6094 81.3155 55.3922 90.0977 33.1795C93.4482 24.6917 99.2555 11.5156 110.544 16.8708C120.888 21.7738 119.814 35.3793 119.131 44.8866C117.367 69.5206 109.55 93.5369 97.1775 114.858C83.163 139.003 63.1548 159.294 39.1207 173.509C36.4543 175.086 34.5515 170.647 37.1989 169.092C74.5917 147.1 101.917 108.983 111.381 66.6933C113.591 56.8241 115.006 46.6023 115.073 36.4712C115.113 30.7914 114.493 23.2181 108.444 20.5765C101.332 17.4765 97.7184 26.1217 95.3218 31.345C86.2557 51.1198 85.8593 74.5472 94.3064 94.5867C104.102 117.824 125.581 135.171 150.117 140.547C151.776 140.919 151.532 143.55 149.843 143.206Z" fill="#2CACE2"/>
<path d="M150.846 144.323C124.887 141.086 101.168 125.303 88.8726 102.075C77.2107 80.038 75.6261 50.2558 88.0473 28.1217C90.6036 23.5627 94.0015 19.2348 98.5658 16.529C102.016 14.4878 107.603 12.4954 111.371 14.8707C115.688 17.5825 117.161 25.4821 118.189 30.1077C119.521 36.097 119.887 42.277 119.546 48.3899C118.053 74.9855 104.228 100.457 89.2649 121.842C70.8925 148.091 46.6732 171.057 18.7305 186.872C16.7443 187.995 14.707 184.636 16.6633 183.411C38.3206 169.885 57.8538 153.909 74.4028 134.382C90.0979 115.853 103.983 94.3549 111.55 71.1527C115.072 60.3457 117.123 48.7897 115.968 37.4058C115.451 32.2991 114.557 26.3421 112.13 21.7572C107.229 12.5287 97.8274 19.9083 93.6407 25.3998C79.5615 43.8232 80.0718 72.972 88.2745 93.6071C98.6561 119.712 123.409 138.318 151.09 142.123C152.49 142.313 152.261 144.499 150.846 144.323Z" fill="#2CACE2"/>
<path d="M30.0176 190.522C27.9888 183.677 25.1451 177.374 22.0047 170.984C23.0718 171.253 24.1389 171.523 25.2059 171.792C18.355 177.378 11.3505 182.794 4.34618 188.209C4.15004 186.899 3.9626 185.591 3.76646 184.281C12.7517 187.055 21.9303 188.752 31.3095 189.456C30.5356 190.505 29.7704 191.557 28.9966 192.606C27.0863 188.696 25.0205 184.875 22.7422 181.161C24.0535 180.784 25.356 180.405 26.6639 180.037C26.1287 182.875 25.7563 185.706 25.5315 188.596C25.373 190.629 22.0987 191.305 21.4322 189.228C20.1608 185.248 19.8747 181.466 20.6644 177.345C21.0163 175.508 23.8305 174.65 24.582 176.741C25.7963 180.127 32.9826 193.714 23.8145 191.71C15.5519 189.902 16.5719 180.457 19.9686 174.985C21.1931 173.021 24.1765 174.867 23.4203 176.915C22.9611 178.159 22.4986 179.41 22.0395 180.653C20.7892 180.161 19.539 179.669 18.2887 179.177C19.6885 176.64 21.0153 174.084 22.2482 171.461C23.3116 169.192 26.5035 170.508 25.834 172.872C23.9647 179.456 18.6066 183.363 13.0939 186.899C12.3559 185.666 11.6178 184.433 10.8885 183.204C14.35 181.899 17.8115 180.594 21.2729 179.289C23.9564 178.28 25.406 181.908 23.0157 183.294C19.7964 185.155 16.5244 186.565 12.975 187.634C12.7593 186.246 12.5437 184.858 12.3368 183.473C14.1826 183.878 15.8185 183.951 17.6865 183.663C17.5296 185.055 17.3727 186.447 17.2246 187.843C14.3973 186.67 11.7591 186.163 8.74078 186.138C6.54026 186.125 6.16797 182.739 8.10782 181.989C10.1565 181.191 12.2071 180.414 14.2611 179.628C14.8192 180.91 15.3773 182.193 15.9407 183.487C13.2514 184.384 10.6601 185.44 8.09907 186.648C5.66243 187.795 4.02995 183.994 6.43528 182.825C12.243 180.017 17.3653 176.377 21.9837 171.878C23.6881 170.222 26.5972 173.022 24.9888 174.815C22.4851 177.61 19.7676 179.98 16.5768 181.973C15.8527 180.755 15.1253 179.547 14.4012 178.329C17.8987 176.347 22.399 172.402 26.6404 173.32C28.3578 173.695 29.2215 175.398 28.2147 176.937C26.7165 179.215 24.7029 180.408 22.0282 180.809C19.1181 181.248 18.4189 176.732 21.3256 176.302C22.8343 176.214 23.9202 175.518 24.5922 174.218C24.9209 175.37 25.2461 176.531 25.5748 177.683C23.3254 176.978 17.9466 181.219 16.1071 182.249C14.0119 183.42 11.8595 179.896 13.9314 178.605C16.8098 176.82 19.323 174.791 21.5908 172.265C22.5908 173.24 23.596 174.227 24.5959 175.202C19.7084 179.927 14.2127 183.7 8.08514 186.632C7.53229 185.362 6.97419 184.079 6.42135 182.809C8.98766 181.613 11.5929 180.573 14.2559 179.616C16.7804 178.704 18.461 182.434 15.9354 183.475C13.9025 184.31 11.873 185.135 9.83479 185.957C9.62783 184.572 9.4088 183.193 9.20185 181.808C12.6222 181.83 15.6787 182.472 18.8237 183.78C20.807 184.6 20.5135 187.613 18.3618 187.96C16.0854 188.317 14.1274 188.298 11.8844 187.807C10.0386 187.401 8.91275 184.351 11.2461 183.645C14.799 182.567 18.0745 181.149 21.2903 179.296C21.8695 180.627 22.4487 181.958 23.0331 183.301C19.575 184.597 16.1048 185.898 12.6468 187.194C10.482 188.007 8.21899 184.84 10.4414 183.499C15.4147 180.493 20.4597 177.304 22.2864 171.466C23.4845 171.937 24.674 172.405 25.8721 172.877C24.6687 175.502 23.4165 178.097 22.0863 180.662C20.9119 182.907 17.3999 181.665 18.3356 179.186C18.8034 177.946 19.2833 176.701 19.7512 175.461C20.9018 176.105 22.0524 176.748 23.2029 177.391C22.0521 179.195 21.2796 181.106 21.6781 183.279C21.7853 183.872 23.5628 188.833 25.1742 187.593C24.9043 188.278 24.6378 188.956 24.3678 189.642C24.2146 186.082 21.9745 181.761 20.8539 178.392C22.1557 178.193 23.4696 177.988 24.7714 177.788C24.1385 181.129 24.3103 184.285 25.3904 187.527C24.0229 187.741 22.6587 187.946 21.2911 188.16C21.4743 185.274 21.8172 182.441 22.3055 179.595C22.5994 177.906 25.1102 176.698 26.2272 178.471C28.7618 182.477 31.0752 186.586 33.1711 190.84C33.9492 192.43 32.4771 194.107 30.8582 193.991C21.0718 193.278 11.4923 191.453 2.11318 188.584C0.420986 188.068 0.244769 185.662 1.53345 184.656C8.52048 179.233 15.5195 173.806 22.6445 168.568C23.7488 167.75 25.2497 168.14 25.8457 169.377C28.9346 175.847 31.1253 182.815 33.0003 189.72C33.4338 191.345 30.5156 192.212 30.0176 190.522Z" fill="#2CACE2"/>
</svg>
