<svg width="228" height="111" viewBox="0 0 228 111" fill="none" xmlns="http://www.w3.org/2000/svg">
<path d="M58.2708 75.9055C35.0862 69.5413 15.5536 44.5692 0.426515 1.55923C0.180755 1.12861 0.53539 0.499641 0.920202 0.423695C1.35136 0.178895 1.81271 0.487111 2.05847 0.917726C17.6771 44.7889 37.4253 69.6387 61.1499 74.6985C80.3818 78.8882 97.028 69.2946 114.705 59.2576C131.998 49.2967 149.938 38.9687 170.524 43.5301C193.525 48.573 212.784 70.5647 227.763 108.813C228.008 109.244 227.653 109.872 227.268 109.948C226.837 110.193 226.376 109.885 226.131 109.454C211.351 71.8056 192.554 50.122 170.23 45.2652C150.321 40.8896 132.643 50.9263 115.735 60.8113C98.6574 70.6498 80.98 80.6866 61.0249 76.48C60.0094 76.2012 59.117 76.1378 58.2708 75.9055Z" fill="#2CACE2"/>
</svg>
