<svg width="157" height="169" viewBox="0 0 157 169" fill="none" xmlns="http://www.w3.org/2000/svg">
<path d="M2.72732 167.314C1.17186 154.357 7.10025 139.481 21.0627 135.516C31.75 132.481 44.2632 136.438 53.6995 140.964C55.2569 141.712 67.8682 148.279 61.3045 151.814C49.3018 158.277 37.7231 150.437 32.1955 139.579C23.9826 123.447 26.7541 105.275 36.9963 90.6304C49.7018 72.4639 74.0019 53.3972 97.3999 59.6372C108.31 62.547 114.539 68.289 119.487 78.1398C123.426 85.9821 126.763 96.1298 121.173 104.358C111.972 117.9 95.9699 109.825 87.6579 100.054C70.8145 80.2563 73.9471 47.1691 93.9579 30.7624C111.51 16.3714 133.52 8.12535 155.153 2.18381" stroke="#FF8C35" stroke-width="3" stroke-linecap="round"/>
</svg>
