<svg width="62" height="48" viewBox="0 0 62 48" fill="none" xmlns="http://www.w3.org/2000/svg">
<path d="M32.6769 20.1025C32.9569 20.0204 33.1671 20.0319 33.3188 19.9266C39.7829 17.3269 45.9663 14.2256 51.506 9.84092C54.0134 7.85325 56.1819 5.53904 58.2101 3.12005C58.7463 2.50059 59.3643 1.86947 59.9472 1.28507C60.1688 1.08633 60.4721 0.875804 60.7521 0.793732C60.9155 0.770173 61.2192 0.851509 61.3244 1.00314C61.4297 1.15477 61.3484 1.45841 61.2434 1.59861C56.4063 7.6751 50.8328 12.9821 43.8913 16.6096C40.3213 18.4586 36.7396 20.2259 32.9823 21.6431C32.5856 21.7837 32.0372 22.0295 31.8742 22.3449C29.7546 26.4451 26.4898 29.5428 22.8624 32.1506C17.2757 36.2085 11.5251 39.998 5.83308 43.9042C5.49485 44.1613 5.0749 44.4304 4.77207 44.9326C9.34818 44.857 13.9126 44.6994 18.5702 44.6121C18.5597 45.4057 18.1865 45.7098 17.673 45.909C17.0778 46.12 16.4479 46.3774 15.7942 46.4716C12.1876 46.908 8.58059 47.3449 4.96223 47.6994C4.18009 47.7705 3.37456 47.678 2.60375 47.539C1.09757 47.2138 0.5939 46.0357 1.31604 44.6805C2.77205 42.0521 4.23994 39.5049 5.7893 36.9466C6.2203 36.1756 6.81542 35.9647 7.39948 36.2558C7.9018 36.5587 8.07772 37.2006 7.6935 38.0066C7.01813 39.3966 6.24922 40.7169 5.46898 42.2472C5.78411 42.1182 5.94736 42.0949 6.09924 41.9892C11.6392 37.8966 17.226 33.8387 22.7075 29.6292C24.3637 28.3897 25.7976 26.7653 27.2549 25.3042C27.8379 24.7197 28.2689 23.9487 28.8983 23.1074C28.3613 23.1431 27.9528 23.202 27.626 23.2491C25.035 23.7894 22.362 24.0495 19.7 23.8077C17.3299 23.5655 15.146 22.8794 13.2179 21.3642C12.5985 20.828 11.9324 20.2568 11.4179 19.5803C9.11443 16.618 9.52997 12.8468 12.457 10.2982C16.0369 7.07175 23.2842 5.27654 28.7177 9.41408C31.8026 11.7217 33.0557 14.9188 32.8153 18.7481C32.7925 19.1684 32.7347 19.6355 32.6769 20.1025ZM14.1502 20.0205C15.9612 21.3024 17.8065 21.9539 19.7913 22.1265C22.9321 22.5078 26.0368 22.0603 29.0595 21.3328C29.7481 21.1919 30.0628 20.7712 30.3071 20.1522C31.4587 16.8586 30.1228 12.7978 27.2953 10.8284C23.4512 8.1715 17.2411 8.4828 13.6844 11.5808C11.2704 13.6385 11.0521 16.4638 13.028 18.8895C13.4255 19.3327 13.9047 19.764 14.1502 20.0205Z" fill="#FF8C35"/>
</svg>
