<svg width="245" height="177" viewBox="0 0 245 177" fill="none" xmlns="http://www.w3.org/2000/svg">
<g clip-path="url(#clip0_20_3548)">
<path fill-rule="evenodd" clip-rule="evenodd" d="M103.75 70.5835C88.1041 80.6027 61.1664 105.218 37.4442 131.172C35.5313 133.265 33.0115 136.023 31.8448 137.301C16.1115 154.532 7.9775 164.366 2.893 172.305C0.908749 175.404 0.768125 175.721 1.15893 176.225C1.72931 176.961 2.11853 176.572 6.0794 171.306C10.1781 165.857 14.0789 161.366 25.0308 149.489C61.6341 109.796 79.538 92.6543 101.35 76.4219C105.624 73.2409 112.998 69.1077 113.34 69.7009C113.798 70.4932 110.767 75.8464 103.291 87.4482C94.0943 101.721 88.7076 110.777 88.5786 112.182C88.3581 114.583 90.3936 115.048 93.1678 113.231C94.7531 112.193 95.0849 111.909 101.66 105.949C120.539 88.8386 132.959 78.5161 150.344 65.4852C176.819 45.6409 194.217 33.9142 227.758 13.3067C239.809 5.90197 240.416 5.48961 242.253 3.45145C242.961 2.66583 243.842 1.78883 244.211 1.5024C245.075 0.831338 244.969 0.673171 243.942 1.10393C243.495 1.29149 242.391 1.59146 241.489 1.77049C239.266 2.21195 238.014 2.89044 227.57 9.31687C192.558 30.8605 174.568 42.9467 149.324 61.886C136.047 71.8467 130.229 76.4534 120.938 84.3592C114.586 89.7638 98.0258 104.383 95.7834 106.565C94.5598 107.756 98.8032 100.739 106.503 88.8396C116.242 73.7876 117.885 70.2782 116.406 67.687C114.738 64.7651 111.779 65.4423 103.75 70.5835Z" fill="#2CACE2"/>
</g>
<defs>
<clipPath id="clip0_20_3548">
<rect width="245" height="177" fill="white"/>
</clipPath>
</defs>
</svg>
