<svg width="216" height="172" viewBox="0 0 216 172" fill="none" xmlns="http://www.w3.org/2000/svg">
<g clip-path="url(#clip0_20_10837)">
<path fill-rule="evenodd" clip-rule="evenodd" d="M90.5964 74.3937C79.771 84.3485 62.1437 107.225 47.2076 130.702C46.0032 132.595 44.4169 135.09 43.6825 136.246C33.7788 151.83 28.7858 160.608 25.9107 167.491C24.7887 170.178 24.7226 170.444 25.0965 170.783C25.6424 171.278 25.8925 170.922 28.2583 166.275C30.7066 161.467 33.132 157.433 40.042 146.676C63.1368 110.727 74.7454 94.9134 89.5264 79.2714C92.4226 76.2062 97.6056 71.9732 97.9537 72.3882C98.4196 72.9425 96.7909 77.5289 92.5537 87.5937C87.3414 99.9755 84.3839 107.77 84.4762 108.882C84.6339 110.783 86.285 110.865 88.199 109.069C89.2927 108.042 89.5125 107.775 93.8216 102.229C106.195 86.3063 114.463 76.5586 126.231 64.0188C144.153 44.9225 156.11 33.3968 179.437 12.7349C187.818 5.31072 188.235 4.90609 189.388 3.06599C189.832 2.35672 190.399 1.5525 190.647 1.27867C191.229 0.6372 191.124 0.528562 190.383 1.00525C190.06 1.21278 189.24 1.59817 188.561 1.86159C186.888 2.51098 186.005 3.21156 178.743 9.65281C154.397 31.2461 142.028 43.1332 124.942 61.3554C115.956 70.939 112.051 75.327 105.891 82.7622C101.68 87.8451 90.7727 101.509 89.3236 103.517C88.5329 104.612 90.8787 98.5634 95.2495 88.2361C100.778 75.1728 101.577 72.2133 100.068 70.3981C98.3663 68.3513 96.1518 69.2855 90.5964 74.3937Z" fill="#2CACE2"/>
</g>
<defs>
<clipPath id="clip0_20_10837">
<rect width="194" height="140" fill="white" transform="translate(0 33.6709) rotate(-9.99498)"/>
</clipPath>
</defs>
</svg>
