<svg width="60" height="60" viewBox="0 0 60 60" fill="none" xmlns="http://www.w3.org/2000/svg">
<g clip-path="url(#clip0_20_53972)">
<path d="M12.881 22.0605C10.8456 22.0605 9.18958 23.7165 9.18958 25.752C9.18958 27.7874 10.8456 29.4434 12.881 29.4434C14.9164 29.4434 16.5724 27.7874 16.5724 25.752C16.5724 23.7165 14.9164 22.0605 12.881 22.0605ZM12.881 27.6855C11.8148 27.6855 10.9474 26.8181 10.9474 25.752C10.9474 24.6858 11.8148 23.8184 12.881 23.8184C13.9472 23.8184 14.8146 24.6858 14.8146 25.752C14.8146 26.8181 13.9472 27.6855 12.881 27.6855Z" fill="#FF8C35"/>
<path d="M11.5307 12.782H41.0616C41.4226 12.782 41.7638 12.6244 41.9981 12.3496C42.2321 12.0751 42.3335 11.7138 42.2765 11.3579C41.9538 9.3491 40.2405 7.89117 38.2029 7.89117C37.9292 7.89117 37.6597 7.91766 37.3958 7.97016C36.6268 6.3443 34.9801 5.27098 33.1235 5.27098C32.6953 5.27098 32.2736 5.32805 31.8683 5.43938C31.515 2.3816 28.9106 0 25.7606 0C23.0312 0 20.649 1.82215 19.8761 4.3677C19.6491 4.33746 19.4198 4.32223 19.1897 4.32223C16.9047 4.32223 14.9383 5.78344 14.2488 7.8934C12.2735 7.95891 10.6312 9.39551 10.3159 11.3578C10.2588 11.7135 10.3602 12.0749 10.5941 12.3493C10.8284 12.6244 11.1698 12.782 11.5307 12.782ZM14.3895 9.64898C14.5165 9.64898 14.6481 9.66023 14.7804 9.68238C15.0105 9.72082 15.2466 9.66633 15.4367 9.53074C15.6267 9.39492 15.7548 9.18926 15.7929 8.95887C16.0686 7.29082 17.497 6.08016 19.1895 6.08016C19.5561 6.08016 19.9187 6.1384 20.2672 6.25336C20.5147 6.33492 20.7859 6.30234 21.0071 6.16465C21.2284 6.02672 21.3771 5.79773 21.4129 5.53957C21.7123 3.38355 23.5815 1.75781 25.7606 1.75781C28.1817 1.75781 30.1514 3.72809 30.1514 6.14988C30.1514 6.3252 30.1401 6.50648 30.1181 6.68883C30.0767 7.02984 30.2377 7.36371 30.5305 7.54348C30.823 7.72324 31.1936 7.71633 31.4791 7.52543C31.965 7.20059 32.5337 7.02891 33.1237 7.02891C34.4892 7.02891 35.6738 7.9527 36.0045 9.27539C36.0679 9.52875 36.2406 9.74086 36.4756 9.85406C36.7109 9.96727 36.9842 9.97008 37.2219 9.86191C37.5316 9.7207 37.8616 9.6491 38.203 9.6491C39.1529 9.6491 39.9799 10.2005 40.3563 11.0243H12.2363C12.6127 10.2002 13.4396 9.64898 14.3895 9.64898Z" fill="#FF8C35"/>
<path d="M57.2461 54.4921H56.6504V49.6288C56.6504 49.1433 56.257 48.7499 55.7715 48.7499H47.8699V46.586C50.2285 46.2906 52.3137 45.0703 53.8257 43.0746C55.6737 40.6355 56.6504 37.0883 56.6504 32.817C56.6504 28.7947 55.7961 24.4431 54.3064 20.8778C54.1192 20.4299 53.6048 20.2181 53.1567 20.4057C52.7089 20.5929 52.4974 21.1076 52.6847 21.5556C54.0878 24.9142 54.8927 29.0189 54.8927 32.8171C54.8927 36.7021 54.0392 39.8821 52.4248 42.0132C51.2365 43.5817 49.6769 44.5335 47.87 44.8117V34.7416H48.795C49.232 34.7416 49.6427 34.5715 49.9513 34.2627L51.0143 33.1997C51.3575 32.8563 51.3575 32.2999 51.0143 31.9567C50.6709 31.6136 50.1145 31.6136 49.7713 31.9567L48.7441 32.9839H47.8699V25.2161C47.8699 24.7305 47.4765 24.3371 46.991 24.3371C46.5055 24.3371 46.1121 24.7305 46.1121 25.2161V26.5932H45.8114L44.7359 25.5178C44.3927 25.1747 43.8362 25.1746 43.493 25.5179C43.1497 25.8612 43.1497 26.4177 43.4931 26.7608L44.5928 27.8605C44.9092 28.1768 45.3296 28.3511 45.7768 28.3511H46.1121V37.0778H44.3562C44.1869 37.0778 44.0275 36.9875 43.9401 36.8425L42.7642 34.8871C42.5139 34.4709 41.9735 34.3368 41.5581 34.5868C41.1421 34.837 41.0078 35.3769 41.258 35.7929L42.4339 37.7483C42.8372 38.419 43.5737 38.8355 44.3562 38.8355H46.1121V44.8711C44.0882 44.7049 42.3464 43.7273 41.0477 42.0132C39.4331 39.8821 38.5798 36.7022 38.5798 32.8171C38.5798 28.7113 39.5385 24.1992 41.1442 20.7473C42.7522 17.2904 44.7905 15.3077 46.7362 15.3077C48.4694 15.3077 49.9196 16.8388 50.8309 18.1233C51.1118 18.5193 51.6602 18.6123 52.0563 18.3315C52.4522 18.0506 52.5455 17.502 52.2646 17.1061C50.6137 14.7796 48.7022 13.5498 46.7362 13.5498C41.0619 13.5498 36.8221 23.722 36.8221 32.817C36.8221 37.0884 37.7988 40.6355 39.6468 43.0746C41.2669 45.2129 43.5448 46.4611 46.1122 46.6351V48.7499H32.3441V43.8575L32.4748 43.9342C32.8792 44.1714 33.34 44.2968 33.8069 44.2968C34.7396 44.2968 35.6117 43.7974 36.083 42.9938C36.4393 42.3861 36.5378 41.6763 36.3601 40.9948C36.1825 40.3132 35.75 39.7417 35.1425 39.3854L32.5622 37.8721V32.6366C32.5622 32.1511 32.1688 31.7577 31.6833 31.7577H30.8448V29.4432H31.7298C32.2153 29.4432 32.6087 29.0498 32.6087 28.5643C32.6087 28.0788 32.2153 27.6854 31.7298 27.6854H21.7283V24.3523C21.8086 24.3598 21.8891 24.3647 21.9697 24.3647C22.957 24.3647 23.8536 23.8211 24.3096 22.9459C24.9812 21.6564 24.4787 20.061 23.1894 19.3893L14.0993 14.6537C13.3364 14.2561 12.4256 14.2562 11.6628 14.6537L9.44343 15.8099C9.013 16.0341 8.84577 16.5649 9.07007 16.9954C9.29436 17.426 9.82511 17.5935 10.2557 17.3688L12.4751 16.2127C12.7294 16.0801 13.0329 16.0801 13.2872 16.2127L22.3773 20.9482C22.807 21.1721 22.9746 21.7039 22.7507 22.1337C22.5985 22.4256 22.2992 22.6069 21.9697 22.6069C21.8283 22.6069 21.6921 22.5734 21.5652 22.5071L21.2792 22.3582C21.2679 22.3518 21.2562 22.346 21.2444 22.34L13.2872 18.1946C13.0326 18.0621 12.7295 18.0621 12.475 18.1946L4.52343 22.3371C4.50866 22.3445 4.49389 22.3519 4.47948 22.36L4.19706 22.507C3.76733 22.731 3.23542 22.5635 3.01147 22.1337C2.78753 21.7038 2.95511 21.172 3.38483 20.9481L6.61827 19.2635C7.0487 19.0392 7.21593 18.5085 6.99163 18.078C6.76733 17.6475 6.23659 17.48 5.80604 17.7046L2.57272 19.3891C1.28331 20.0607 0.780808 21.6562 1.45253 22.9459C1.96112 23.9221 2.99928 24.4467 4.03323 24.3526V37.7848L1.30393 39.3854C0.696433 39.7417 0.264012 40.3132 0.0863552 40.9948C-0.091301 41.6762 0.00713649 42.3861 0.363387 42.9936C1.09874 44.2478 2.71745 44.6699 3.97159 43.9342L4.10237 43.8575V54.4921H2.75471C1.2362 54.4921 0.000808367 55.7275 0.000808367 57.246C0.000808367 58.7645 1.2362 59.9999 2.75471 59.9999H36.6126C37.0982 59.9999 37.4916 59.6065 37.4916 59.121C37.4916 58.6355 37.0982 58.2421 36.6126 58.2421H2.75471C2.20546 58.2421 1.75862 57.7952 1.75862 57.246C1.75862 56.6967 2.20546 56.2499 2.75471 56.2499H57.2461C57.7952 56.2499 58.2422 56.6967 58.2422 57.246C58.2422 57.7952 57.7953 58.2421 57.2461 58.2421H40.6679C40.1824 58.2421 39.789 58.6355 39.789 59.121C39.789 59.6065 40.1824 59.9999 40.6679 59.9999H57.2461C58.7646 59.9999 60 58.7645 60 57.246C60 55.7275 58.7646 54.4921 57.2461 54.4921ZM25.1338 33.5155H30.8044V36.8412L25.1338 33.5155ZM29.087 31.7577H26.1092V29.4432H29.087V31.7577ZM24.3514 29.4432V31.7577H22.185C22.1699 31.7577 22.1552 31.7592 22.1403 31.7599L21.7283 31.5183V29.4432H24.3514ZM5.79104 23.6589L12.8811 19.9652L19.9706 23.6585V30.4874L19.5572 30.2449C18.7345 29.7626 17.7123 29.7628 16.8895 30.2449L5.79116 36.7539V23.6589H5.79104ZM3.08249 42.4179C2.66436 42.6629 2.12483 42.5224 1.87968 42.1044C1.76096 41.9018 1.72815 41.6653 1.78733 41.4381C1.84651 41.211 1.99065 41.0205 2.19315 40.9017L17.7785 31.7612C18.0527 31.6002 18.3935 31.6002 18.6678 31.7612L34.2533 40.9017C34.4558 41.0205 34.6 41.211 34.6592 41.4381C34.7184 41.6652 34.6856 41.9018 34.5668 42.1044C34.4096 42.3724 34.1185 42.5389 33.8071 42.5389C33.65 42.5389 33.5011 42.4982 33.3641 42.4179L18.668 33.799C18.5307 33.7185 18.3771 33.6783 18.2233 33.6783C18.0696 33.6783 17.916 33.7186 17.7787 33.799L3.08249 42.4179ZM5.86007 42.8266L18.2232 35.576L30.5864 42.8266V54.4921H17.6959V44.4725C17.6959 43.7295 17.0913 43.1249 16.3482 43.1249H10.2546C9.51151 43.1249 8.90694 43.7295 8.90694 44.4725V54.4921H5.86007V42.8266ZM10.6648 54.4921V44.8827H15.9381V54.4921H10.6648ZM32.3441 54.4921V50.5077H54.8926V54.4921H32.3441Z" fill="#004274"/>
<path d="M20.6824 50.5664H26.776C27.5191 50.5664 28.1237 49.9618 28.1237 49.2188V44.4727C28.1237 43.7296 27.5191 43.125 26.776 43.125H20.6824C19.9393 43.125 19.3347 43.7296 19.3347 44.4727V49.2188C19.3348 49.9618 19.9393 50.5664 20.6824 50.5664ZM26.366 48.8086H24.6082V44.8828H26.366V48.8086ZM21.0925 44.8828H22.8503V48.8086H21.0925V44.8828Z" fill="#FF8C35"/>
</g>
<defs>
<clipPath id="clip0_20_53972">
<rect width="60" height="60" fill="white"/>
</clipPath>
</defs>
</svg>
