<svg width="60" height="60" viewBox="0 0 60 60" fill="none" xmlns="http://www.w3.org/2000/svg">
<g clip-path="url(#clip0_20_53960)">
<path d="M34.0204 23.8472C31.2732 23.8472 29.0382 26.0822 29.0382 28.8295C29.0382 31.5766 31.2732 33.8117 34.0204 33.8117C36.7677 33.8117 39.0027 31.5767 39.0027 28.8295C39.0027 26.0822 36.7675 23.8472 34.0204 23.8472ZM34.0204 31.4679C32.5656 31.4679 31.382 30.2843 31.382 28.8294C31.382 27.3745 32.5656 26.1908 34.0204 26.1908C35.4753 26.1908 36.6589 27.3745 36.6589 28.8294C36.6589 30.2843 35.4753 31.4679 34.0204 31.4679Z" fill="#FF8C35"/>
<path d="M55.6793 35.0042L59.6568 31.0267C60.1144 30.5691 60.1144 29.8271 59.6568 29.3693L52.9861 22.6987V11.0453C52.9861 10.3982 52.4614 9.87344 51.8142 9.87344H45.2517C44.6045 9.87344 44.0798 10.3982 44.0798 11.0453V13.7924L36.8379 6.55035C35.2843 4.99691 32.7566 4.99691 31.203 6.55035L27.2508 10.5026C25.7577 4.4793 20.3065 0.000976562 13.8281 0.000976562C12.1239 0.000976562 10.4593 0.307656 8.88094 0.912578C8.2766 1.14426 7.97449 1.82195 8.20605 2.42617C8.43762 3.03051 9.11543 3.33262 9.71976 3.10117C11.0295 2.59926 12.4118 2.34473 13.8282 2.34473C20.1608 2.34473 25.3126 7.49664 25.3126 13.8291C25.3126 20.1616 20.1608 25.3135 13.8282 25.3135C7.49566 25.3135 2.34387 20.1616 2.34387 13.8291C2.34387 12.4128 2.59828 11.0308 3.09996 9.72145C3.33152 9.11711 3.0293 8.43941 2.42496 8.20785C1.82074 7.97617 1.14293 8.27863 0.911367 8.88285C0.306563 10.4609 0 12.1251 0 13.8291C0 20.3075 4.47844 25.7587 10.5016 27.2518L8.38406 29.3693C7.92644 29.827 7.92644 30.569 8.38406 31.0267L12.3615 35.0042C12.518 35.1606 12.7145 35.2671 12.9267 35.3161V52.9676H10.8173C10.1701 52.9676 9.64547 53.4924 9.64547 54.1395V58.827C9.64547 59.4741 10.1701 59.9989 10.8173 59.9989H57.2236C57.8708 59.9989 58.3955 59.4741 58.3955 58.827V54.1395C58.3955 53.4924 57.8708 52.9676 57.2236 52.9676H55.1142V35.3162C55.3212 35.2687 55.518 35.1654 55.6793 35.0042ZM46.4236 12.2172H50.6423V20.3549L46.4236 16.1362V12.2172ZM32.8603 8.20773C33.1702 7.89777 33.5822 7.72715 34.0204 7.72715C34.4585 7.72715 34.8705 7.89777 35.1804 8.20773L57.1707 30.198L54.8505 32.5182L34.849 12.5166C34.3912 12.0591 33.6493 12.0591 33.1916 12.5166L26.6134 19.0948C27.2848 17.4708 27.6561 15.6926 27.6561 13.829C27.6561 13.6915 27.6536 13.5548 27.6496 13.4184L32.8603 8.20773ZM10.87 30.198L13.4174 27.6505C13.5539 27.6545 13.6907 27.6571 13.8281 27.6571C15.6918 27.6571 17.47 27.2857 19.0939 26.6144L13.1903 32.518L10.87 30.198ZM56.0517 57.6551H11.9892V55.3114H56.0517V57.6551ZM38.4736 52.9676H29.5673V39.1395H38.4736V52.9676ZM40.8173 52.9676V37.9676C40.8173 37.3205 40.2927 36.7957 39.6455 36.7957H28.3955C27.7482 36.7957 27.2236 37.3205 27.2236 37.9676V52.9676H15.2705V33.7526L34.0205 15.0026L52.7705 33.7526V52.9676H40.8173Z" fill="#004274"/>
<path d="M13.7705 17.7227C12.7692 17.73 12.4825 17.6842 11.7248 17.1885C11.183 16.8341 10.4569 16.9861 10.1026 17.5276C9.74832 18.0693 9.90007 18.7956 10.4417 19.1498C11.2883 19.7037 11.9158 19.9335 12.6711 20.02V20.3843C12.6711 21.0315 13.1959 21.5562 13.843 21.5562C14.4901 21.5562 15.0148 21.0315 15.0148 20.3843V19.8716C16.5295 19.382 17.498 18.0417 17.7205 16.7184C18.0235 14.9157 17.0462 13.2871 15.2886 12.6657C14.3471 12.3329 13.3071 11.9318 12.7311 11.4802C12.5825 11.3636 12.5187 11.0709 12.5758 10.7685C12.6056 10.611 12.7439 10.0848 13.2745 9.92531C14.2655 9.62789 15.1583 10.2619 15.1673 10.2683C15.6863 10.6547 16.417 10.5449 16.8035 10.026C17.1862 9.51223 17.0758 8.78098 16.5703 8.39133C16.2385 8.14348 15.6853 7.84312 15.0147 7.66465V7.27441C15.0147 6.62719 14.49 6.10254 13.8428 6.10254C13.1957 6.10254 12.671 6.62719 12.671 7.27441V7.6609C12.6473 7.66758 12.6237 7.67355 12.6001 7.6807C11.4057 8.03953 10.5139 9.05602 10.2727 10.3336C10.0498 11.514 10.4375 12.66 11.2846 13.3243C12.1251 13.9835 13.3303 14.4594 14.5074 14.8755C15.4488 15.2084 15.4766 15.9296 15.4092 16.33C15.2971 16.9963 14.7365 17.7163 13.7705 17.7227Z" fill="#FF8C35"/>
<path d="M4.87854 6.05176C5.52575 6.05176 6.05042 5.52709 6.05042 4.87988C6.05042 4.23267 5.52575 3.70801 4.87854 3.70801C4.23133 3.70801 3.70667 4.23267 3.70667 4.87988C3.70667 5.52709 4.23133 6.05176 4.87854 6.05176Z" fill="#FF8C35"/>
</g>
<defs>
<clipPath id="clip0_20_53960">
<rect width="60" height="60" fill="white"/>
</clipPath>
</defs>
</svg>
