<svg width="175" height="126" viewBox="0 0 175 126" fill="none" xmlns="http://www.w3.org/2000/svg">
<path fill-rule="evenodd" clip-rule="evenodd" d="M62.8062 111.064C49.2007 114.454 35.0748 116.926 23.0381 124.512C22.32 124.961 21.3729 124.753 20.9173 124.039C20.4677 123.325 20.6783 122.381 21.3951 121.926C33.7136 114.164 48.1439 111.562 62.0659 108.094C62.8881 107.885 63.7248 108.388 63.9272 109.208C64.1356 110.027 63.6284 110.855 62.8062 111.064Z" fill="#2CACE2"/>
<path fill-rule="evenodd" clip-rule="evenodd" d="M59.611 91.0125C54.4727 88.0602 49.1641 86.1752 43.2143 85.9837C42.3645 85.957 41.7023 85.2492 41.7276 84.4058C41.759 83.561 42.4732 82.8976 43.317 82.9257C49.7867 83.1331 55.5601 85.153 61.1459 88.3606C61.8824 88.7815 62.136 89.7174 61.7081 90.4503C61.2861 91.1812 60.3415 91.4346 59.611 91.0125Z" fill="#2CACE2"/>
<path fill-rule="evenodd" clip-rule="evenodd" d="M61.928 45.7071C58.4794 39.4714 53.4609 35.1128 46.7161 32.6638C45.9209 32.3746 45.5101 31.4958 45.8047 30.7019C46.0933 29.9092 46.9777 29.4993 47.7729 29.7885C55.2378 32.5009 60.8007 37.3221 64.6193 44.2261C65.0302 44.9644 64.7541 45.8979 64.0141 46.3055C63.2683 46.7152 62.3329 46.4467 61.928 45.7071Z" fill="#2CACE2"/>
<path fill-rule="evenodd" clip-rule="evenodd" d="M127.275 21.5698C128.743 22.6727 130.116 23.9082 131.353 25.2735C131.905 25.8812 132.932 27.2052 133.324 28.45C133.746 29.7751 133.54 31.0191 132.487 31.8856C131.088 33.0352 129.81 33.2341 128.731 32.9696C127.691 32.7162 126.756 31.9705 126.022 30.8544C124.618 28.7211 123.953 25.1295 123.96 22.9934C122.433 21.9957 120.813 21.1437 119.125 20.4416C106.557 15.2126 91.2669 21.6003 81.5783 35.7936C78.1879 40.7626 78.0096 49.6443 78.9695 58.9691C80.4623 73.4885 84.952 89.0734 86.1199 93.6725C86.4057 94.8087 86.4496 95.5112 86.42 95.6602C86.2873 96.3897 85.8283 96.6743 85.4952 96.8178C85.0115 97.0202 84.5883 97.0146 84.2271 96.9198C83.738 96.7885 83.2878 96.4654 82.9804 95.8801C82.8135 95.5564 82.6824 95.0827 82.5801 94.5695C82.5128 94.2128 82.4982 93.8096 82.3694 93.5719C81.5378 92.0512 80.6188 90.5901 79.7093 89.115C76.6655 84.1533 73.1575 79.6503 69.387 75.2124C57.4081 61.1106 45.5025 46.0424 29.0021 36.949C28.2622 36.5408 27.9907 35.6096 28.4045 34.8698C28.8123 34.1314 29.7472 33.8632 30.4933 34.2706C47.3234 43.5429 59.516 58.8523 71.7337 73.233C74.9402 77.0082 77.9622 80.8311 80.6805 84.9289C78.7321 77.04 76.3418 66.0512 75.6257 56.0153C74.9882 47.0899 75.7447 38.9065 79.0402 34.076C89.6535 18.5275 106.549 11.8882 120.313 17.6179C121.786 18.2314 123.218 18.948 124.585 19.767C128.301 7.19334 140.611 -0.268209 153.574 2.4464C154.407 2.61944 154.935 3.4318 154.761 4.25775C154.581 5.08503 153.767 5.61452 152.935 5.44147C141.254 2.99555 130.192 9.98753 127.275 21.5698ZM127.243 25.508C127.882 26.0824 128.49 26.69 129.074 27.3282C129.384 27.6714 129.936 28.3409 130.264 29.044C130.339 29.2091 130.405 29.4788 130.433 29.6042C130.065 29.8999 129.763 30.0703 129.47 29.9974C129.103 29.9088 128.85 29.5642 128.592 29.1735C127.945 28.1935 127.495 26.8029 127.243 25.508Z" fill="#2CACE2"/>
</svg>
