<svg width="152" height="141" viewBox="0 0 152 141" fill="none" xmlns="http://www.w3.org/2000/svg">
<path d="M80.0131 86.0023C78.7984 83.8201 78.1504 82.0524 76.9983 80.7343C74.8799 78.3035 72.3923 76.2044 70.1917 73.8525C66.3363 69.7407 62.6628 65.4543 58.7487 61.3989C56.5354 59.1042 54.2132 56.7899 51.5504 55.0956C48.4276 53.11 44.7951 53.8116 42.6433 56.0681C40.268 58.5616 40.0973 62.3774 42.6298 65.6509C44.2488 67.7493 46.1386 69.8359 48.3471 71.2448C55.3702 75.721 62.5714 79.9249 69.7671 84.1229C71.6086 85.1962 73.6266 86.0891 75.6742 86.649C76.7436 86.9529 78.0677 86.3361 80.0131 86.0023Z" fill="#2CACE2"/>
<path d="M116.642 74.0406C117.296 74.1346 118.145 74.5031 118.765 74.2685C119.403 74.0171 120.15 73.2445 120.261 72.5968C120.529 71.0205 120.563 69.3875 120.504 67.7756C120.152 58.3406 119.783 48.8996 119.31 39.4678C119.216 37.6194 118.888 35.6799 118.181 33.9798C116.838 30.7597 113.39 28.917 110.366 29.4068C107.382 29.8917 104.934 32.8611 104.648 36.3928C104.58 37.191 104.557 38.0246 104.702 38.8098C106.841 50.2605 109.901 61.4252 115.127 71.9098C115.474 72.6245 116.049 73.2231 116.642 74.0406Z" fill="#2CACE2"/>
<path d="M34.3323 105.974C35.5245 106.464 37.4374 107.672 39.4897 108.013C46.9364 109.265 54.4281 110.248 61.908 111.265C62.9577 111.408 64.0711 111.252 65.1274 111.073C66.4663 110.859 67.9935 110.442 67.9352 108.807C67.907 107.943 66.9946 106.993 66.2783 106.305C65.7311 105.782 64.8554 105.574 64.1022 105.282C56.797 102.485 49.5105 99.626 42.1563 96.9665C40.1757 96.2524 37.9852 95.8967 35.8808 95.8533C33.9432 95.8191 32.2042 96.7438 31.5281 98.8467C30.9072 100.795 31.2266 102.574 32.581 104.137C32.94 104.559 33.3296 104.929 34.3323 105.974Z" fill="#2CACE2"/>
</svg>
