<svg width="191" height="178" viewBox="0 0 191 178" fill="none" xmlns="http://www.w3.org/2000/svg">
<g clip-path="url(#clip0_20_3570)">
<path d="M35.3006 2.2C35.9116 2.2 36.4069 1.70751 36.4069 1.1C36.4069 0.492487 35.9116 0 35.3006 0C34.6896 0 34.1943 0.492487 34.1943 1.1C34.1943 1.70751 34.6896 2.2 35.3006 2.2Z" fill="#004274"/>
<path d="M35.3006 22.0999C35.9116 22.0999 36.4069 21.6074 36.4069 20.9999C36.4069 20.3924 35.9116 19.8999 35.3006 19.8999C34.6896 19.8999 34.1943 20.3924 34.1943 20.9999C34.1943 21.6074 34.6896 22.0999 35.3006 22.0999Z" fill="#004274"/>
<path d="M35.3006 42.0999C35.9116 42.0999 36.4069 41.6074 36.4069 40.9999C36.4069 40.3924 35.9116 39.8999 35.3006 39.8999C34.6896 39.8999 34.1943 40.3924 34.1943 40.9999C34.1943 41.6074 34.6896 42.0999 35.3006 42.0999Z" fill="#004274"/>
<path d="M35.3006 62.0999C35.9116 62.0999 36.4069 61.6074 36.4069 60.9999C36.4069 60.3924 35.9116 59.8999 35.3006 59.8999C34.6896 59.8999 34.1943 60.3924 34.1943 60.9999C34.1943 61.6074 34.6896 62.0999 35.3006 62.0999Z" fill="#004274"/>
<path d="M35.3006 81.9998C35.9116 81.9998 36.4069 81.5073 36.4069 80.8998C36.4069 80.2923 35.9116 79.7998 35.3006 79.7998C34.6896 79.7998 34.1943 80.2923 34.1943 80.8998C34.1943 81.5073 34.6896 81.9998 35.3006 81.9998Z" fill="#004274"/>
<path d="M18.204 2.2C18.815 2.2 19.3103 1.70751 19.3103 1.1C19.3103 0.492487 18.815 0 18.204 0C17.593 0 17.0977 0.492487 17.0977 1.1C17.0977 1.70751 17.593 2.2 18.204 2.2Z" fill="#004274"/>
<path d="M18.204 22.0999C18.815 22.0999 19.3103 21.6074 19.3103 20.9999C19.3103 20.3924 18.815 19.8999 18.204 19.8999C17.593 19.8999 17.0977 20.3924 17.0977 20.9999C17.0977 21.6074 17.593 22.0999 18.204 22.0999Z" fill="#004274"/>
<path d="M18.204 42.0999C18.815 42.0999 19.3103 41.6074 19.3103 40.9999C19.3103 40.3924 18.815 39.8999 18.204 39.8999C17.593 39.8999 17.0977 40.3924 17.0977 40.9999C17.0977 41.6074 17.593 42.0999 18.204 42.0999Z" fill="#004274"/>
<path d="M18.204 62.0999C18.815 62.0999 19.3103 61.6074 19.3103 60.9999C19.3103 60.3924 18.815 59.8999 18.204 59.8999C17.593 59.8999 17.0977 60.3924 17.0977 60.9999C17.0977 61.6074 17.593 62.0999 18.204 62.0999Z" fill="#004274"/>
<path d="M18.204 81.9998C18.815 81.9998 19.3103 81.5073 19.3103 80.8998C19.3103 80.2923 18.815 79.7998 18.204 79.7998C17.593 79.7998 17.0977 80.2923 17.0977 80.8998C17.0977 81.5073 17.593 81.9998 18.204 81.9998Z" fill="#004274"/>
<path d="M1.1063 2.2C1.71729 2.2 2.21259 1.70751 2.21259 1.1C2.21259 0.492487 1.71729 0 1.1063 0C0.495305 0 0 0.492487 0 1.1C0 1.70751 0.495305 2.2 1.1063 2.2Z" fill="#004274"/>
<path d="M1.1063 22.0999C1.71729 22.0999 2.21259 21.6074 2.21259 20.9999C2.21259 20.3924 1.71729 19.8999 1.1063 19.8999C0.495305 19.8999 0 20.3924 0 20.9999C0 21.6074 0.495305 22.0999 1.1063 22.0999Z" fill="#004274"/>
<path d="M1.1063 42.0999C1.71729 42.0999 2.21259 41.6074 2.21259 40.9999C2.21259 40.3924 1.71729 39.8999 1.1063 39.8999C0.495305 39.8999 0 40.3924 0 40.9999C0 41.6074 0.495305 42.0999 1.1063 42.0999Z" fill="#004274"/>
<path d="M1.1063 62.0999C1.71729 62.0999 2.21259 61.6074 2.21259 60.9999C2.21259 60.3924 1.71729 59.8999 1.1063 59.8999C0.495305 59.8999 0 60.3924 0 60.9999C0 61.6074 0.495305 62.0999 1.1063 62.0999Z" fill="#004274"/>
<path d="M1.1063 81.9998C1.71729 81.9998 2.21259 81.5073 2.21259 80.8998C2.21259 80.2923 1.71729 79.7998 1.1063 79.7998C0.495305 79.7998 0 80.2923 0 80.8998C0 81.5073 0.495305 81.9998 1.1063 81.9998Z" fill="#004274"/>
<path d="M86.5926 2.2C87.2035 2.2 87.6989 1.70751 87.6989 1.1C87.6989 0.492487 87.2035 0 86.5926 0C85.9816 0 85.4863 0.492487 85.4863 1.1C85.4863 1.70751 85.9816 2.2 86.5926 2.2Z" fill="#004274"/>
<path d="M86.5926 22.0999C87.2035 22.0999 87.6989 21.6074 87.6989 20.9999C87.6989 20.3924 87.2035 19.8999 86.5926 19.8999C85.9816 19.8999 85.4863 20.3924 85.4863 20.9999C85.4863 21.6074 85.9816 22.0999 86.5926 22.0999Z" fill="#004274"/>
<path d="M86.5926 42.0999C87.2035 42.0999 87.6989 41.6074 87.6989 40.9999C87.6989 40.3924 87.2035 39.8999 86.5926 39.8999C85.9816 39.8999 85.4863 40.3924 85.4863 40.9999C85.4863 41.6074 85.9816 42.0999 86.5926 42.0999Z" fill="#004274"/>
<path d="M86.5926 62.0999C87.2035 62.0999 87.6989 61.6074 87.6989 60.9999C87.6989 60.3924 87.2035 59.8999 86.5926 59.8999C85.9816 59.8999 85.4863 60.3924 85.4863 60.9999C85.4863 61.6074 85.9816 62.0999 86.5926 62.0999Z" fill="#004274"/>
<path d="M86.5926 81.9998C87.2035 81.9998 87.6989 81.5073 87.6989 80.8998C87.6989 80.2923 87.2035 79.7998 86.5926 79.7998C85.9816 79.7998 85.4863 80.2923 85.4863 80.8998C85.4863 81.5073 85.9816 81.9998 86.5926 81.9998Z" fill="#004274"/>
<path d="M69.4959 2.2C70.1069 2.2 70.6022 1.70751 70.6022 1.1C70.6022 0.492487 70.1069 0 69.4959 0C68.8849 0 68.3896 0.492487 68.3896 1.1C68.3896 1.70751 68.8849 2.2 69.4959 2.2Z" fill="#004274"/>
<path d="M69.4959 22.0999C70.1069 22.0999 70.6022 21.6074 70.6022 20.9999C70.6022 20.3924 70.1069 19.8999 69.4959 19.8999C68.8849 19.8999 68.3896 20.3924 68.3896 20.9999C68.3896 21.6074 68.8849 22.0999 69.4959 22.0999Z" fill="#004274"/>
<path d="M69.4959 42.0999C70.1069 42.0999 70.6022 41.6074 70.6022 40.9999C70.6022 40.3924 70.1069 39.8999 69.4959 39.8999C68.8849 39.8999 68.3896 40.3924 68.3896 40.9999C68.3896 41.6074 68.8849 42.0999 69.4959 42.0999Z" fill="#004274"/>
<path d="M69.4959 62.0999C70.1069 62.0999 70.6022 61.6074 70.6022 60.9999C70.6022 60.3924 70.1069 59.8999 69.4959 59.8999C68.8849 59.8999 68.3896 60.3924 68.3896 60.9999C68.3896 61.6074 68.8849 62.0999 69.4959 62.0999Z" fill="#004274"/>
<path d="M69.4959 81.9998C70.1069 81.9998 70.6022 81.5073 70.6022 80.8998C70.6022 80.2923 70.1069 79.7998 69.4959 79.7998C68.8849 79.7998 68.3896 80.2923 68.3896 80.8998C68.3896 81.5073 68.8849 81.9998 69.4959 81.9998Z" fill="#004274"/>
<path d="M52.3983 2.2C53.0093 2.2 53.5046 1.70751 53.5046 1.1C53.5046 0.492487 53.0093 0 52.3983 0C51.7873 0 51.292 0.492487 51.292 1.1C51.292 1.70751 51.7873 2.2 52.3983 2.2Z" fill="#004274"/>
<path d="M52.3983 22.0999C53.0093 22.0999 53.5046 21.6074 53.5046 20.9999C53.5046 20.3924 53.0093 19.8999 52.3983 19.8999C51.7873 19.8999 51.292 20.3924 51.292 20.9999C51.292 21.6074 51.7873 22.0999 52.3983 22.0999Z" fill="#004274"/>
<path d="M52.3983 42.0999C53.0093 42.0999 53.5046 41.6074 53.5046 40.9999C53.5046 40.3924 53.0093 39.8999 52.3983 39.8999C51.7873 39.8999 51.292 40.3924 51.292 40.9999C51.292 41.6074 51.7873 42.0999 52.3983 42.0999Z" fill="#004274"/>
<path d="M52.3983 62.0999C53.0093 62.0999 53.5046 61.6074 53.5046 60.9999C53.5046 60.3924 53.0093 59.8999 52.3983 59.8999C51.7873 59.8999 51.292 60.3924 51.292 60.9999C51.292 61.6074 51.7873 62.0999 52.3983 62.0999Z" fill="#004274"/>
<path d="M52.3983 81.9998C53.0093 81.9998 53.5046 81.5073 53.5046 80.8998C53.5046 80.2923 53.0093 79.7998 52.3983 79.7998C51.7873 79.7998 51.292 80.2923 51.292 80.8998C51.292 81.5073 51.7873 81.9998 52.3983 81.9998Z" fill="#004274"/>
<path d="M35.3006 98.2C35.9116 98.2 36.4069 97.7075 36.4069 97.1C36.4069 96.4925 35.9116 96 35.3006 96C34.6896 96 34.1943 96.4925 34.1943 97.1C34.1943 97.7075 34.6896 98.2 35.3006 98.2Z" fill="#004274"/>
<path d="M35.3006 118.1C35.9116 118.1 36.4069 117.608 36.4069 117C36.4069 116.392 35.9116 115.9 35.3006 115.9C34.6896 115.9 34.1943 116.392 34.1943 117C34.1943 117.608 34.6896 118.1 35.3006 118.1Z" fill="#004274"/>
<path d="M35.3006 138.1C35.9116 138.1 36.4069 137.608 36.4069 137C36.4069 136.392 35.9116 135.9 35.3006 135.9C34.6896 135.9 34.1943 136.392 34.1943 137C34.1943 137.608 34.6896 138.1 35.3006 138.1Z" fill="#004274"/>
<path d="M35.3006 158.1C35.9116 158.1 36.4069 157.608 36.4069 157C36.4069 156.392 35.9116 155.9 35.3006 155.9C34.6896 155.9 34.1943 156.392 34.1943 157C34.1943 157.608 34.6896 158.1 35.3006 158.1Z" fill="#004274"/>
<path d="M35.3006 178C35.9116 178 36.4069 177.508 36.4069 176.9C36.4069 176.292 35.9116 175.8 35.3006 175.8C34.6896 175.8 34.1943 176.292 34.1943 176.9C34.1943 177.508 34.6896 178 35.3006 178Z" fill="#004274"/>
<path d="M18.204 98.2C18.815 98.2 19.3103 97.7075 19.3103 97.1C19.3103 96.4925 18.815 96 18.204 96C17.593 96 17.0977 96.4925 17.0977 97.1C17.0977 97.7075 17.593 98.2 18.204 98.2Z" fill="#004274"/>
<path d="M18.204 118.1C18.815 118.1 19.3103 117.608 19.3103 117C19.3103 116.392 18.815 115.9 18.204 115.9C17.593 115.9 17.0977 116.392 17.0977 117C17.0977 117.608 17.593 118.1 18.204 118.1Z" fill="#004274"/>
<path d="M18.204 138.1C18.815 138.1 19.3103 137.608 19.3103 137C19.3103 136.392 18.815 135.9 18.204 135.9C17.593 135.9 17.0977 136.392 17.0977 137C17.0977 137.608 17.593 138.1 18.204 138.1Z" fill="#004274"/>
<path d="M18.204 158.1C18.815 158.1 19.3103 157.608 19.3103 157C19.3103 156.392 18.815 155.9 18.204 155.9C17.593 155.9 17.0977 156.392 17.0977 157C17.0977 157.608 17.593 158.1 18.204 158.1Z" fill="#004274"/>
<path d="M18.204 178C18.815 178 19.3103 177.508 19.3103 176.9C19.3103 176.292 18.815 175.8 18.204 175.8C17.593 175.8 17.0977 176.292 17.0977 176.9C17.0977 177.508 17.593 178 18.204 178Z" fill="#004274"/>
<path d="M1.1063 98.2C1.71729 98.2 2.21259 97.7075 2.21259 97.1C2.21259 96.4925 1.71729 96 1.1063 96C0.495305 96 0 96.4925 0 97.1C0 97.7075 0.495305 98.2 1.1063 98.2Z" fill="#004274"/>
<path d="M1.1063 118.1C1.71729 118.1 2.21259 117.608 2.21259 117C2.21259 116.392 1.71729 115.9 1.1063 115.9C0.495305 115.9 0 116.392 0 117C0 117.608 0.495305 118.1 1.1063 118.1Z" fill="#004274"/>
<path d="M1.1063 138.1C1.71729 138.1 2.21259 137.608 2.21259 137C2.21259 136.392 1.71729 135.9 1.1063 135.9C0.495305 135.9 0 136.392 0 137C0 137.608 0.495305 138.1 1.1063 138.1Z" fill="#004274"/>
<path d="M1.1063 158.1C1.71729 158.1 2.21259 157.608 2.21259 157C2.21259 156.392 1.71729 155.9 1.1063 155.9C0.495305 155.9 0 156.392 0 157C0 157.608 0.495305 158.1 1.1063 158.1Z" fill="#004274"/>
<path d="M1.1063 178C1.71729 178 2.21259 177.508 2.21259 176.9C2.21259 176.292 1.71729 175.8 1.1063 175.8C0.495305 175.8 0 176.292 0 176.9C0 177.508 0.495305 178 1.1063 178Z" fill="#004274"/>
<path d="M86.5926 98.2C87.2035 98.2 87.6989 97.7075 87.6989 97.1C87.6989 96.4925 87.2035 96 86.5926 96C85.9816 96 85.4863 96.4925 85.4863 97.1C85.4863 97.7075 85.9816 98.2 86.5926 98.2Z" fill="#004274"/>
<path d="M86.5926 118.1C87.2035 118.1 87.6989 117.608 87.6989 117C87.6989 116.392 87.2035 115.9 86.5926 115.9C85.9816 115.9 85.4863 116.392 85.4863 117C85.4863 117.608 85.9816 118.1 86.5926 118.1Z" fill="#004274"/>
<path d="M86.5926 138.1C87.2035 138.1 87.6989 137.608 87.6989 137C87.6989 136.392 87.2035 135.9 86.5926 135.9C85.9816 135.9 85.4863 136.392 85.4863 137C85.4863 137.608 85.9816 138.1 86.5926 138.1Z" fill="#004274"/>
<path d="M86.5926 158.1C87.2035 158.1 87.6989 157.608 87.6989 157C87.6989 156.392 87.2035 155.9 86.5926 155.9C85.9816 155.9 85.4863 156.392 85.4863 157C85.4863 157.608 85.9816 158.1 86.5926 158.1Z" fill="#004274"/>
<path d="M86.5926 178C87.2035 178 87.6989 177.508 87.6989 176.9C87.6989 176.292 87.2035 175.8 86.5926 175.8C85.9816 175.8 85.4863 176.292 85.4863 176.9C85.4863 177.508 85.9816 178 86.5926 178Z" fill="#004274"/>
<path d="M69.4959 98.2C70.1069 98.2 70.6022 97.7075 70.6022 97.1C70.6022 96.4925 70.1069 96 69.4959 96C68.8849 96 68.3896 96.4925 68.3896 97.1C68.3896 97.7075 68.8849 98.2 69.4959 98.2Z" fill="#004274"/>
<path d="M69.4959 118.1C70.1069 118.1 70.6022 117.608 70.6022 117C70.6022 116.392 70.1069 115.9 69.4959 115.9C68.8849 115.9 68.3896 116.392 68.3896 117C68.3896 117.608 68.8849 118.1 69.4959 118.1Z" fill="#004274"/>
<path d="M69.4959 138.1C70.1069 138.1 70.6022 137.608 70.6022 137C70.6022 136.392 70.1069 135.9 69.4959 135.9C68.8849 135.9 68.3896 136.392 68.3896 137C68.3896 137.608 68.8849 138.1 69.4959 138.1Z" fill="#004274"/>
<path d="M69.4959 158.1C70.1069 158.1 70.6022 157.608 70.6022 157C70.6022 156.392 70.1069 155.9 69.4959 155.9C68.8849 155.9 68.3896 156.392 68.3896 157C68.3896 157.608 68.8849 158.1 69.4959 158.1Z" fill="#004274"/>
<path d="M69.4959 178C70.1069 178 70.6022 177.508 70.6022 176.9C70.6022 176.292 70.1069 175.8 69.4959 175.8C68.8849 175.8 68.3896 176.292 68.3896 176.9C68.3896 177.508 68.8849 178 69.4959 178Z" fill="#004274"/>
<path d="M52.3983 98.2C53.0093 98.2 53.5046 97.7075 53.5046 97.1C53.5046 96.4925 53.0093 96 52.3983 96C51.7873 96 51.292 96.4925 51.292 97.1C51.292 97.7075 51.7873 98.2 52.3983 98.2Z" fill="#004274"/>
<path d="M52.3983 118.1C53.0093 118.1 53.5046 117.608 53.5046 117C53.5046 116.392 53.0093 115.9 52.3983 115.9C51.7873 115.9 51.292 116.392 51.292 117C51.292 117.608 51.7873 118.1 52.3983 118.1Z" fill="#004274"/>
<path d="M52.3983 138.1C53.0093 138.1 53.5046 137.608 53.5046 137C53.5046 136.392 53.0093 135.9 52.3983 135.9C51.7873 135.9 51.292 136.392 51.292 137C51.292 137.608 51.7873 138.1 52.3983 138.1Z" fill="#004274"/>
<path d="M52.3983 158.1C53.0093 158.1 53.5046 157.608 53.5046 157C53.5046 156.392 53.0093 155.9 52.3983 155.9C51.7873 155.9 51.292 156.392 51.292 157C51.292 157.608 51.7873 158.1 52.3983 158.1Z" fill="#004274"/>
<path d="M52.3983 178C53.0093 178 53.5046 177.508 53.5046 176.9C53.5046 176.292 53.0093 175.8 52.3983 175.8C51.7873 175.8 51.292 176.292 51.292 176.9C51.292 177.508 51.7873 178 52.3983 178Z" fill="#004274"/>
<path d="M137.885 2.2C138.496 2.2 138.991 1.70751 138.991 1.1C138.991 0.492487 138.496 0 137.885 0C137.274 0 136.778 0.492487 136.778 1.1C136.778 1.70751 137.274 2.2 137.885 2.2Z" fill="#004274"/>
<path d="M137.885 22.0999C138.496 22.0999 138.991 21.6074 138.991 20.9999C138.991 20.3924 138.496 19.8999 137.885 19.8999C137.274 19.8999 136.778 20.3924 136.778 20.9999C136.778 21.6074 137.274 22.0999 137.885 22.0999Z" fill="#004274"/>
<path d="M137.885 42.0999C138.496 42.0999 138.991 41.6074 138.991 40.9999C138.991 40.3924 138.496 39.8999 137.885 39.8999C137.274 39.8999 136.778 40.3924 136.778 40.9999C136.778 41.6074 137.274 42.0999 137.885 42.0999Z" fill="#004274"/>
<path d="M137.885 62.0999C138.496 62.0999 138.991 61.6074 138.991 60.9999C138.991 60.3924 138.496 59.8999 137.885 59.8999C137.274 59.8999 136.778 60.3924 136.778 60.9999C136.778 61.6074 137.274 62.0999 137.885 62.0999Z" fill="#004274"/>
<path d="M137.885 81.9998C138.496 81.9998 138.991 81.5073 138.991 80.8998C138.991 80.2923 138.496 79.7998 137.885 79.7998C137.274 79.7998 136.778 80.2923 136.778 80.8998C136.778 81.5073 137.274 81.9998 137.885 81.9998Z" fill="#004274"/>
<path d="M120.787 2.2C121.398 2.2 121.894 1.70751 121.894 1.1C121.894 0.492487 121.398 0 120.787 0C120.176 0 119.681 0.492487 119.681 1.1C119.681 1.70751 120.176 2.2 120.787 2.2Z" fill="#004274"/>
<path d="M120.787 22.0999C121.398 22.0999 121.894 21.6074 121.894 20.9999C121.894 20.3924 121.398 19.8999 120.787 19.8999C120.176 19.8999 119.681 20.3924 119.681 20.9999C119.681 21.6074 120.176 22.0999 120.787 22.0999Z" fill="#004274"/>
<path d="M120.787 42.0999C121.398 42.0999 121.894 41.6074 121.894 40.9999C121.894 40.3924 121.398 39.8999 120.787 39.8999C120.176 39.8999 119.681 40.3924 119.681 40.9999C119.681 41.6074 120.176 42.0999 120.787 42.0999Z" fill="#004274"/>
<path d="M120.787 62.0999C121.398 62.0999 121.894 61.6074 121.894 60.9999C121.894 60.3924 121.398 59.8999 120.787 59.8999C120.176 59.8999 119.681 60.3924 119.681 60.9999C119.681 61.6074 120.176 62.0999 120.787 62.0999Z" fill="#004274"/>
<path d="M120.787 81.9998C121.398 81.9998 121.894 81.5073 121.894 80.8998C121.894 80.2923 121.398 79.7998 120.787 79.7998C120.176 79.7998 119.681 80.2923 119.681 80.8998C119.681 81.5073 120.176 81.9998 120.787 81.9998Z" fill="#004274"/>
<path d="M103.69 2.2C104.301 2.2 104.796 1.70751 104.796 1.1C104.796 0.492487 104.301 0 103.69 0C103.079 0 102.584 0.492487 102.584 1.1C102.584 1.70751 103.079 2.2 103.69 2.2Z" fill="#004274"/>
<path d="M103.69 22.0999C104.301 22.0999 104.796 21.6074 104.796 20.9999C104.796 20.3924 104.301 19.8999 103.69 19.8999C103.079 19.8999 102.584 20.3924 102.584 20.9999C102.584 21.6074 103.079 22.0999 103.69 22.0999Z" fill="#004274"/>
<path d="M103.69 42.0999C104.301 42.0999 104.796 41.6074 104.796 40.9999C104.796 40.3924 104.301 39.8999 103.69 39.8999C103.079 39.8999 102.584 40.3924 102.584 40.9999C102.584 41.6074 103.079 42.0999 103.69 42.0999Z" fill="#004274"/>
<path d="M103.69 62.0999C104.301 62.0999 104.796 61.6074 104.796 60.9999C104.796 60.3924 104.301 59.8999 103.69 59.8999C103.079 59.8999 102.584 60.3924 102.584 60.9999C102.584 61.6074 103.079 62.0999 103.69 62.0999Z" fill="#004274"/>
<path d="M103.69 81.9998C104.301 81.9998 104.796 81.5073 104.796 80.8998C104.796 80.2923 104.301 79.7998 103.69 79.7998C103.079 79.7998 102.584 80.2923 102.584 80.8998C102.584 81.5073 103.079 81.9998 103.69 81.9998Z" fill="#004274"/>
<path d="M189.177 2.2C189.788 2.2 190.283 1.70751 190.283 1.1C190.283 0.492487 189.788 0 189.177 0C188.566 0 188.07 0.492487 188.07 1.1C188.07 1.70751 188.566 2.2 189.177 2.2Z" fill="#004274"/>
<path d="M189.177 22.0999C189.788 22.0999 190.283 21.6074 190.283 20.9999C190.283 20.3924 189.788 19.8999 189.177 19.8999C188.566 19.8999 188.07 20.3924 188.07 20.9999C188.07 21.6074 188.566 22.0999 189.177 22.0999Z" fill="#004274"/>
<path d="M189.177 42.0999C189.788 42.0999 190.283 41.6074 190.283 40.9999C190.283 40.3924 189.788 39.8999 189.177 39.8999C188.566 39.8999 188.07 40.3924 188.07 40.9999C188.07 41.6074 188.566 42.0999 189.177 42.0999Z" fill="#004274"/>
<path d="M189.177 62.0999C189.788 62.0999 190.283 61.6074 190.283 60.9999C190.283 60.3924 189.788 59.8999 189.177 59.8999C188.566 59.8999 188.07 60.3924 188.07 60.9999C188.07 61.6074 188.566 62.0999 189.177 62.0999Z" fill="#004274"/>
<path d="M189.177 81.9998C189.788 81.9998 190.283 81.5073 190.283 80.8998C190.283 80.2923 189.788 79.7998 189.177 79.7998C188.566 79.7998 188.07 80.2923 188.07 80.8998C188.07 81.5073 188.566 81.9998 189.177 81.9998Z" fill="#004274"/>
<path d="M172.079 2.2C172.69 2.2 173.186 1.70751 173.186 1.1C173.186 0.492487 172.69 0 172.079 0C171.468 0 170.973 0.492487 170.973 1.1C170.973 1.70751 171.468 2.2 172.079 2.2Z" fill="#004274"/>
<path d="M172.079 22.0999C172.69 22.0999 173.186 21.6074 173.186 20.9999C173.186 20.3924 172.69 19.8999 172.079 19.8999C171.468 19.8999 170.973 20.3924 170.973 20.9999C170.973 21.6074 171.468 22.0999 172.079 22.0999Z" fill="#004274"/>
<path d="M172.079 42.0999C172.69 42.0999 173.186 41.6074 173.186 40.9999C173.186 40.3924 172.69 39.8999 172.079 39.8999C171.468 39.8999 170.973 40.3924 170.973 40.9999C170.973 41.6074 171.468 42.0999 172.079 42.0999Z" fill="#004274"/>
<path d="M172.079 62.0999C172.69 62.0999 173.186 61.6074 173.186 60.9999C173.186 60.3924 172.69 59.8999 172.079 59.8999C171.468 59.8999 170.973 60.3924 170.973 60.9999C170.973 61.6074 171.468 62.0999 172.079 62.0999Z" fill="#004274"/>
<path d="M172.079 81.9998C172.69 81.9998 173.186 81.5073 173.186 80.8998C173.186 80.2923 172.69 79.7998 172.079 79.7998C171.468 79.7998 170.973 80.2923 170.973 80.8998C170.973 81.5073 171.468 81.9998 172.079 81.9998Z" fill="#004274"/>
<path d="M154.982 2.2C155.593 2.2 156.088 1.70751 156.088 1.1C156.088 0.492487 155.593 0 154.982 0C154.371 0 153.876 0.492487 153.876 1.1C153.876 1.70751 154.371 2.2 154.982 2.2Z" fill="#004274"/>
<path d="M154.982 22.0999C155.593 22.0999 156.088 21.6074 156.088 20.9999C156.088 20.3924 155.593 19.8999 154.982 19.8999C154.371 19.8999 153.876 20.3924 153.876 20.9999C153.876 21.6074 154.371 22.0999 154.982 22.0999Z" fill="#004274"/>
<path d="M154.982 42.0999C155.593 42.0999 156.088 41.6074 156.088 40.9999C156.088 40.3924 155.593 39.8999 154.982 39.8999C154.371 39.8999 153.876 40.3924 153.876 40.9999C153.876 41.6074 154.371 42.0999 154.982 42.0999Z" fill="#004274"/>
<path d="M154.982 62.0999C155.593 62.0999 156.088 61.6074 156.088 60.9999C156.088 60.3924 155.593 59.8999 154.982 59.8999C154.371 59.8999 153.876 60.3924 153.876 60.9999C153.876 61.6074 154.371 62.0999 154.982 62.0999Z" fill="#004274"/>
<path d="M154.982 81.9998C155.593 81.9998 156.088 81.5073 156.088 80.8998C156.088 80.2923 155.593 79.7998 154.982 79.7998C154.371 79.7998 153.876 80.2923 153.876 80.8998C153.876 81.5073 154.371 81.9998 154.982 81.9998Z" fill="#004274"/>
<path d="M137.885 98.2C138.496 98.2 138.991 97.7075 138.991 97.1C138.991 96.4925 138.496 96 137.885 96C137.274 96 136.778 96.4925 136.778 97.1C136.778 97.7075 137.274 98.2 137.885 98.2Z" fill="#004274"/>
<path d="M137.885 118.1C138.496 118.1 138.991 117.608 138.991 117C138.991 116.392 138.496 115.9 137.885 115.9C137.274 115.9 136.778 116.392 136.778 117C136.778 117.608 137.274 118.1 137.885 118.1Z" fill="#004274"/>
<path d="M137.885 138.1C138.496 138.1 138.991 137.608 138.991 137C138.991 136.392 138.496 135.9 137.885 135.9C137.274 135.9 136.778 136.392 136.778 137C136.778 137.608 137.274 138.1 137.885 138.1Z" fill="#004274"/>
<path d="M137.885 158.1C138.496 158.1 138.991 157.608 138.991 157C138.991 156.392 138.496 155.9 137.885 155.9C137.274 155.9 136.778 156.392 136.778 157C136.778 157.608 137.274 158.1 137.885 158.1Z" fill="#004274"/>
<path d="M137.885 178C138.496 178 138.991 177.508 138.991 176.9C138.991 176.292 138.496 175.8 137.885 175.8C137.274 175.8 136.778 176.292 136.778 176.9C136.778 177.508 137.274 178 137.885 178Z" fill="#004274"/>
<path d="M120.787 98.2C121.398 98.2 121.894 97.7075 121.894 97.1C121.894 96.4925 121.398 96 120.787 96C120.176 96 119.681 96.4925 119.681 97.1C119.681 97.7075 120.176 98.2 120.787 98.2Z" fill="#004274"/>
<path d="M120.787 118.1C121.398 118.1 121.894 117.608 121.894 117C121.894 116.392 121.398 115.9 120.787 115.9C120.176 115.9 119.681 116.392 119.681 117C119.681 117.608 120.176 118.1 120.787 118.1Z" fill="#004274"/>
<path d="M120.787 138.1C121.398 138.1 121.894 137.608 121.894 137C121.894 136.392 121.398 135.9 120.787 135.9C120.176 135.9 119.681 136.392 119.681 137C119.681 137.608 120.176 138.1 120.787 138.1Z" fill="#004274"/>
<path d="M120.787 158.1C121.398 158.1 121.894 157.608 121.894 157C121.894 156.392 121.398 155.9 120.787 155.9C120.176 155.9 119.681 156.392 119.681 157C119.681 157.608 120.176 158.1 120.787 158.1Z" fill="#004274"/>
<path d="M120.787 178C121.398 178 121.894 177.508 121.894 176.9C121.894 176.292 121.398 175.8 120.787 175.8C120.176 175.8 119.681 176.292 119.681 176.9C119.681 177.508 120.176 178 120.787 178Z" fill="#004274"/>
<path d="M103.69 98.2C104.301 98.2 104.796 97.7075 104.796 97.1C104.796 96.4925 104.301 96 103.69 96C103.079 96 102.584 96.4925 102.584 97.1C102.584 97.7075 103.079 98.2 103.69 98.2Z" fill="#004274"/>
<path d="M103.69 118.1C104.301 118.1 104.796 117.608 104.796 117C104.796 116.392 104.301 115.9 103.69 115.9C103.079 115.9 102.584 116.392 102.584 117C102.584 117.608 103.079 118.1 103.69 118.1Z" fill="#004274"/>
<path d="M103.69 138.1C104.301 138.1 104.796 137.608 104.796 137C104.796 136.392 104.301 135.9 103.69 135.9C103.079 135.9 102.584 136.392 102.584 137C102.584 137.608 103.079 138.1 103.69 138.1Z" fill="#004274"/>
<path d="M103.69 158.1C104.301 158.1 104.796 157.608 104.796 157C104.796 156.392 104.301 155.9 103.69 155.9C103.079 155.9 102.584 156.392 102.584 157C102.584 157.608 103.079 158.1 103.69 158.1Z" fill="#004274"/>
<path d="M103.69 178C104.301 178 104.796 177.508 104.796 176.9C104.796 176.292 104.301 175.8 103.69 175.8C103.079 175.8 102.584 176.292 102.584 176.9C102.584 177.508 103.079 178 103.69 178Z" fill="#004274"/>
<path d="M189.177 98.2C189.788 98.2 190.283 97.7075 190.283 97.1C190.283 96.4925 189.788 96 189.177 96C188.566 96 188.07 96.4925 188.07 97.1C188.07 97.7075 188.566 98.2 189.177 98.2Z" fill="#004274"/>
<path d="M189.177 118.1C189.788 118.1 190.283 117.608 190.283 117C190.283 116.392 189.788 115.9 189.177 115.9C188.566 115.9 188.07 116.392 188.07 117C188.07 117.608 188.566 118.1 189.177 118.1Z" fill="#004274"/>
<path d="M189.177 138.1C189.788 138.1 190.283 137.608 190.283 137C190.283 136.392 189.788 135.9 189.177 135.9C188.566 135.9 188.07 136.392 188.07 137C188.07 137.608 188.566 138.1 189.177 138.1Z" fill="#004274"/>
<path d="M189.177 158.1C189.788 158.1 190.283 157.608 190.283 157C190.283 156.392 189.788 155.9 189.177 155.9C188.566 155.9 188.07 156.392 188.07 157C188.07 157.608 188.566 158.1 189.177 158.1Z" fill="#004274"/>
<path d="M189.177 178C189.788 178 190.283 177.508 190.283 176.9C190.283 176.292 189.788 175.8 189.177 175.8C188.566 175.8 188.07 176.292 188.07 176.9C188.07 177.508 188.566 178 189.177 178Z" fill="#004274"/>
<path d="M172.079 98.2C172.69 98.2 173.186 97.7075 173.186 97.1C173.186 96.4925 172.69 96 172.079 96C171.468 96 170.973 96.4925 170.973 97.1C170.973 97.7075 171.468 98.2 172.079 98.2Z" fill="#004274"/>
<path d="M172.079 118.1C172.69 118.1 173.186 117.608 173.186 117C173.186 116.392 172.69 115.9 172.079 115.9C171.468 115.9 170.973 116.392 170.973 117C170.973 117.608 171.468 118.1 172.079 118.1Z" fill="#004274"/>
<path d="M172.079 138.1C172.69 138.1 173.186 137.608 173.186 137C173.186 136.392 172.69 135.9 172.079 135.9C171.468 135.9 170.973 136.392 170.973 137C170.973 137.608 171.468 138.1 172.079 138.1Z" fill="#004274"/>
<path d="M172.079 158.1C172.69 158.1 173.186 157.608 173.186 157C173.186 156.392 172.69 155.9 172.079 155.9C171.468 155.9 170.973 156.392 170.973 157C170.973 157.608 171.468 158.1 172.079 158.1Z" fill="#004274"/>
<path d="M172.079 178C172.69 178 173.186 177.508 173.186 176.9C173.186 176.292 172.69 175.8 172.079 175.8C171.468 175.8 170.973 176.292 170.973 176.9C170.973 177.508 171.468 178 172.079 178Z" fill="#004274"/>
<path d="M154.982 98.2C155.593 98.2 156.088 97.7075 156.088 97.1C156.088 96.4925 155.593 96 154.982 96C154.371 96 153.876 96.4925 153.876 97.1C153.876 97.7075 154.371 98.2 154.982 98.2Z" fill="#004274"/>
<path d="M154.982 118.1C155.593 118.1 156.088 117.608 156.088 117C156.088 116.392 155.593 115.9 154.982 115.9C154.371 115.9 153.876 116.392 153.876 117C153.876 117.608 154.371 118.1 154.982 118.1Z" fill="#004274"/>
<path d="M154.982 138.1C155.593 138.1 156.088 137.608 156.088 137C156.088 136.392 155.593 135.9 154.982 135.9C154.371 135.9 153.876 136.392 153.876 137C153.876 137.608 154.371 138.1 154.982 138.1Z" fill="#004274"/>
<path d="M154.982 158.1C155.593 158.1 156.088 157.608 156.088 157C156.088 156.392 155.593 155.9 154.982 155.9C154.371 155.9 153.876 156.392 153.876 157C153.876 157.608 154.371 158.1 154.982 158.1Z" fill="#004274"/>
<path d="M154.982 178C155.593 178 156.088 177.508 156.088 176.9C156.088 176.292 155.593 175.8 154.982 175.8C154.371 175.8 153.876 176.292 153.876 176.9C153.876 177.508 154.371 178 154.982 178Z" fill="#004274"/>
</g>
<defs>
<clipPath id="clip0_20_3570">
<rect width="191" height="178" fill="white"/>
</clipPath>
</defs>
</svg>
