<svg width="108" height="100" viewBox="0 0 108 100" fill="none" xmlns="http://www.w3.org/2000/svg">
<g clip-path="url(#clip0_20_43943)">
<path fill-rule="evenodd" clip-rule="evenodd" d="M61.2569 46.1227C60.9568 46.3849 60.5979 46.6002 60.2394 46.8149C58.4104 48.0573 56.3066 49.5293 54.1222 50.1239C51.2343 50.885 49.0642 50.3578 47.4711 49.0901C45.2304 47.3041 44.2109 43.8295 44.5643 40.4327C44.9015 37.0567 46.516 33.759 49.1877 32.1714C51.002 31.0704 53.3509 30.7554 56.1782 31.7894C59.3896 32.9431 61.2922 35.5304 62.2793 38.6794C62.6789 39.8838 62.8712 41.1084 63.0112 42.4008C63.9447 41.5712 64.8857 40.7323 65.8374 39.8794C68.8446 37.0031 71.6246 33.6822 73.9984 30.2698C77.1956 25.8003 79.5324 20.9623 80.9873 15.6624C81.1568 15.1995 81.6654 14.9154 82.1409 15.0414C82.6161 15.1679 82.8949 15.6679 82.7849 16.1769C81.2667 21.6812 78.862 26.7288 75.5322 31.3677C73.0249 34.8293 70.2271 38.2948 67.0865 41.2196C65.7694 42.4185 64.4728 43.5918 63.1279 44.7035C63.1217 47.5323 62.6656 50.325 62.0216 52.5C57.5011 66.8836 40.3971 77.6643 27.1769 83.5852C26.7231 83.7994 26.2017 83.609 25.9905 83.1441C25.7797 82.6786 26.0025 82.1477 26.4562 81.9335C39.2454 76.1976 55.895 65.8782 60.2554 51.9452C60.7679 50.3066 61.1294 48.2487 61.2569 46.1227ZM61.2505 43.8002C60.6359 44.3437 59.9648 44.8371 59.2356 45.282C57.5147 46.3858 55.6455 47.8027 53.6737 48.3698C51.5004 48.95 49.8392 48.6273 48.6592 47.6882C46.7716 46.1852 46.105 43.3615 46.4156 40.6333C46.6823 37.8381 47.9019 35.0468 50.1441 33.7652C51.5655 32.9227 53.357 32.7104 55.5212 33.4902C58.2013 34.4674 59.7441 36.6573 60.5179 39.2213C61.0001 40.6878 61.2178 42.2479 61.2505 43.8002Z" fill="white"/>
<path fill-rule="evenodd" clip-rule="evenodd" d="M26.3781 83.1391C26.8391 83.1609 27.3812 83.0787 27.9238 82.9959C28.9899 82.8548 30.0249 82.631 30.764 82.6641C35.2399 82.8092 40.6057 83.0389 44.8455 84.5907C45.2982 84.7458 45.5518 85.279 45.374 85.7523C45.1967 86.225 44.7 86.4946 44.1877 86.2931C40.1607 84.8364 35.0331 84.6681 30.682 84.4855C29.9216 84.4798 28.6652 84.7432 27.5875 84.8992C26.6425 85.0077 25.7804 85.0096 25.1265 84.7446C24.7457 84.6199 24.3032 84.0837 24.4684 83.136C24.7326 81.8161 26.3705 78.8558 26.5099 78.5543C27.93 75.5063 29.1082 72.7689 28.1205 69.3755C28.0063 68.9089 28.3007 68.4088 28.7308 68.225C29.2204 68.0875 29.7519 68.3871 29.8656 68.8544C30.9726 72.7079 29.8195 75.9037 28.177 79.3596C28.0305 79.5475 27.0404 81.3082 26.5437 82.6811C26.5109 82.8458 26.4095 82.9761 26.3781 83.1391Z" fill="white"/>
</g>
<defs>
<clipPath id="clip0_20_43943">
<rect width="79.0293" height="90.5245" fill="white" transform="translate(20.4541 99.7661) rotate(-105)"/>
</clipPath>
</defs>
</svg>
