<svg width="247" height="238" viewBox="0 0 247 238" fill="none" xmlns="http://www.w3.org/2000/svg">
<g clip-path="url(#clip0_20_42818)">
<path fill-rule="evenodd" clip-rule="evenodd" d="M110.38 130.231C110.843 129.54 111.451 128.912 112.057 128.285C115.075 124.791 118.522 120.686 122.606 118.306C128.019 115.211 132.68 115.102 136.578 116.797C142.062 119.188 145.995 125.645 147.118 132.686C148.262 139.676 146.788 147.199 142.258 151.845C139.194 155.045 134.628 156.95 128.367 156.392C121.267 155.801 116.032 151.611 112.34 145.794C110.883 143.581 109.834 141.216 108.853 138.685C107.419 140.862 105.974 143.063 104.516 145.297C100.006 152.723 96.1936 160.922 93.2505 169.087C89.2179 179.828 87.1195 190.847 87.0493 202.322C86.9576 203.347 86.0856 204.195 85.0584 204.197C84.0317 204.199 83.1993 203.341 83.1462 202.255C83.2335 190.335 85.3554 178.856 89.5639 167.701C92.7499 159.365 96.5195 150.865 101.273 143.269C103.281 140.14 105.262 137.073 107.373 134.104C105.857 128.396 105.268 122.517 105.391 117.783C106.735 86.3332 135.403 55.3494 158.865 36.2649C159.664 35.5878 160.819 35.6899 161.496 36.5133C162.172 37.3381 162.01 38.5292 161.211 39.2063C138.518 57.6849 110.518 87.4929 109.253 117.948C109.105 121.529 109.488 125.875 110.38 130.231ZM111.648 134.911C112.593 133.483 113.68 132.126 114.91 130.834C117.784 127.678 120.788 123.811 124.458 121.602C128.528 119.257 132.052 119.01 134.939 120.266C139.558 122.278 142.428 127.612 143.276 133.282C144.249 139.063 143.298 145.351 139.468 149.147C137.057 151.614 133.559 153.011 128.773 152.607C122.84 152.085 118.545 148.502 115.599 143.75C113.834 141.053 112.552 138.024 111.648 134.911Z" fill="#FF8C35"/>
<path fill-rule="evenodd" clip-rule="evenodd" d="M160.717 36.7326C159.775 36.9376 158.726 37.3963 157.677 37.8564C155.603 38.7173 153.637 39.7277 152.128 40.0603C143.023 42.1865 132.078 44.6227 122.689 43.7843C121.692 43.7162 120.893 42.7779 120.996 41.7273C121.098 40.6783 121.954 39.8662 123.096 39.9956C132.004 40.7573 142.436 38.3259 151.31 36.3428C152.846 35.9436 155.238 34.7334 157.327 33.8364C159.174 33.107 160.911 32.6373 162.373 32.8183C163.209 32.8641 164.391 33.7063 164.57 35.7068C164.75 38.5115 163.047 45.3666 162.928 46.0498C161.712 52.964 160.815 59.1213 164.64 65.431C165.123 66.3103 164.799 67.4778 164.031 68.0809C163.118 68.6227 161.884 68.3057 161.403 67.4249C157.088 60.2517 157.686 53.1836 159.131 45.3266C159.325 44.8685 160.37 40.7827 160.63 37.7456C160.607 37.3957 160.741 37.0781 160.717 36.7326Z" fill="#FF8C35"/>
</g>
<defs>
<clipPath id="clip0_20_42818">
<rect width="165" height="189" fill="white" transform="translate(163.679) rotate(60)"/>
</clipPath>
</defs>
</svg>
