<svg width="200" height="216" viewBox="0 0 200 216" fill="none" xmlns="http://www.w3.org/2000/svg">
<g clip-path="url(#clip0_20_3695)">
<path fill-rule="evenodd" clip-rule="evenodd" d="M45.8485 111.983C35.7854 102.219 26.227 91.5282 13.4289 85.3122C12.6684 84.9395 12.3449 84.0253 12.7107 83.2614C13.0796 82.5026 13.9925 82.1829 14.7574 82.5514C27.8537 88.9138 37.6833 99.7942 47.9798 109.786C48.5914 110.374 48.6061 111.35 48.0166 111.955C47.4312 112.564 46.4602 112.571 45.8485 111.983Z" fill="#2CACE2"/>
<path fill-rule="evenodd" clip-rule="evenodd" d="M61.1887 98.6813C60.9826 92.7588 59.7802 87.2553 56.8011 82.1015C56.375 81.3657 56.6264 80.4296 57.356 80.0058C58.09 79.5863 59.0305 79.8425 59.4522 80.5739C62.6924 86.1776 64.0256 92.1471 64.2513 98.5844C64.2827 99.4321 63.6219 100.142 62.7735 100.165C61.93 100.193 61.216 99.5245 61.1887 98.6813Z" fill="#2CACE2"/>
<path fill-rule="evenodd" clip-rule="evenodd" d="M100.886 76.7255C104.361 70.5041 105.412 63.9408 103.93 56.9198C103.756 56.0918 104.285 55.2789 105.115 55.1099C105.94 54.9364 106.756 55.471 106.93 56.299C108.568 64.0706 107.411 71.3405 103.565 78.2289C103.155 78.9677 102.216 79.2262 101.479 78.813C100.738 78.396 100.472 77.4599 100.886 76.7255Z" fill="#2CACE2"/>
<path fill-rule="evenodd" clip-rule="evenodd" d="M155.891 119.474C155.729 121.303 155.405 123.121 154.899 124.892C154.674 125.682 154.092 127.253 153.242 128.244C152.339 129.302 151.174 129.784 149.882 129.347C148.167 128.766 147.324 127.786 146.978 126.73C146.645 125.713 146.784 124.525 147.344 123.312C148.415 120.993 151.113 118.532 152.931 117.41C152.972 115.587 152.84 113.761 152.545 111.957C150.349 98.5227 136.851 88.9111 119.682 88.1781C113.671 87.9228 106.035 92.4613 98.623 98.2004C87.0811 107.135 76.2169 119.177 72.928 122.598C72.114 123.44 71.5406 123.848 71.3985 123.902C70.7089 124.175 70.2248 123.935 69.9271 123.728C69.4998 123.424 69.2811 123.062 69.1709 122.705C69.0241 122.22 69.0607 121.667 69.3955 121.097C69.5823 120.784 69.9153 120.423 70.2971 120.065C70.5645 119.82 70.8991 119.594 71.033 119.359C71.8853 117.85 72.6408 116.298 73.4132 114.747C76.0195 109.542 77.9911 104.185 79.7689 98.6399C85.419 81.0209 91.9284 62.9538 90.9377 44.1396C90.8937 43.2957 91.5411 42.5735 92.3879 42.5342C93.2303 42.4906 93.9517 43.1429 93.9997 43.9916C95.0126 63.1802 88.4498 81.6185 82.689 99.5876C81.1762 104.304 79.5255 108.889 77.481 113.361C83.1515 107.541 91.2212 99.7085 99.3657 93.801C106.609 88.5466 113.958 84.8678 119.8 85.1157C138.608 85.9184 153.168 96.7605 155.57 111.475C155.827 113.049 155.975 114.644 156.001 116.237C168.641 112.753 181.478 119.267 186.018 131.709C186.31 132.508 185.899 133.385 185.106 133.674C184.309 133.958 183.429 133.546 183.137 132.748C179.046 121.537 167.267 115.835 155.891 119.474ZM152.529 121.526C152.379 122.372 152.184 123.209 151.95 124.042C151.823 124.487 151.546 125.309 151.122 125.959C151.021 126.11 150.827 126.308 150.735 126.398C150.29 126.242 149.986 126.075 149.893 125.788C149.774 125.429 149.933 125.033 150.129 124.607C150.619 123.54 151.563 122.424 152.529 121.526Z" fill="#2CACE2"/>
</g>
<defs>
<clipPath id="clip0_20_3695">
<rect width="175" height="126" fill="white" transform="translate(107.001) rotate(58.1265)"/>
</clipPath>
</defs>
</svg>
