<svg width="60" height="60" viewBox="0 0 60 60" fill="none" xmlns="http://www.w3.org/2000/svg">
<g clip-path="url(#clip0_20_53984)">
<path d="M45.4613 30.1208L23.8988 17.9333C23.758 17.8538 23.5991 17.812 23.4375 17.812C23.2759 17.812 23.117 17.8538 22.9762 17.9333L1.41375 30.1208C1.26915 30.2025 1.14885 30.3212 1.06517 30.4647C0.981493 30.6082 0.937433 30.7713 0.9375 30.9374V35.6249C0.937598 35.7887 0.980603 35.9496 1.06223 36.0916C1.14386 36.2336 1.26127 36.3517 1.40276 36.4342C1.54424 36.5167 1.70488 36.5607 1.86866 36.5618C2.03244 36.5629 2.19366 36.5211 2.33625 36.4405L3.75 35.6418V58.1249C3.75 58.3735 3.84877 58.612 4.02459 58.7878C4.2004 58.9636 4.43886 59.0624 4.6875 59.0624H42.1875C42.4361 59.0624 42.6746 58.9636 42.8504 58.7878C43.0262 58.612 43.125 58.3735 43.125 58.1249V35.6418L44.5387 36.4405C44.6813 36.5211 44.8426 36.5629 45.0063 36.5618C45.1701 36.5607 45.3308 36.5167 45.4722 36.4342C45.6137 36.3517 45.7311 36.2336 45.8128 36.0916C45.8944 35.9496 45.9374 35.7887 45.9375 35.6249V30.9374C45.9376 30.7713 45.8935 30.6082 45.8098 30.4647C45.7261 30.3212 45.6059 30.2025 45.4613 30.1208ZM5.625 52.4999H17.8125V57.1874H5.625V52.4999ZM14.0625 50.6249H9.375V44.0624H14.0625V50.6249ZM27.1875 44.0624V57.1874H19.6875V44.0624H27.1875ZM29.0625 57.1874V52.4999H41.25V57.1874H29.0625ZM37.5 50.6249H32.8125V44.0624H37.5V50.6249ZM41.25 50.6249H39.375V43.1249C39.375 42.8762 39.2762 42.6378 39.1004 42.462C38.9246 42.2862 38.6861 42.1874 38.4375 42.1874H31.875C31.6264 42.1874 31.3879 42.2862 31.2121 42.462C31.0363 42.6378 30.9375 42.8762 30.9375 43.1249V50.6249H29.0625V44.0624H30V42.1874H16.875V44.0624H17.8125V50.6249H15.9375V43.1249C15.9375 42.8762 15.8387 42.6378 15.6629 42.462C15.4871 42.2862 15.2486 42.1874 15 42.1874H8.4375C8.18886 42.1874 7.9504 42.2862 7.77459 42.462C7.59877 42.6378 7.5 42.8762 7.5 43.1249V50.6249H5.625V34.5815L23.4375 24.5136L41.25 34.5815V50.6249ZM44.0625 34.018L23.8988 22.6208C23.758 22.5413 23.5991 22.4995 23.4375 22.4995C23.2759 22.4995 23.117 22.5413 22.9762 22.6208L2.8125 34.018V31.4868L23.4375 19.8261L44.0625 31.484V34.018Z" fill="#004274"/>
<path d="M17.8125 33.75C17.8125 34.8625 18.1424 35.9501 18.7605 36.8751C19.3786 37.8001 20.2571 38.5211 21.2849 38.9468C22.3127 39.3726 23.4437 39.484 24.5349 39.2669C25.626 39.0499 26.6283 38.5141 27.415 37.7275C28.2016 36.9408 28.7374 35.9385 28.9544 34.8474C29.1715 33.7562 29.0601 32.6252 28.6343 31.5974C28.2086 30.5696 27.4876 29.6911 26.5626 29.073C25.6376 28.4549 24.55 28.125 23.4375 28.125C21.9461 28.1265 20.5162 28.7196 19.4617 29.7742C18.4071 30.8287 17.814 32.2586 17.8125 33.75ZM27.1875 33.75C27.1875 34.4917 26.9676 35.2167 26.5555 35.8334C26.1435 36.4501 25.5578 36.9307 24.8726 37.2145C24.1873 37.4984 23.4333 37.5726 22.7059 37.4279C21.9785 37.2832 21.3103 36.9261 20.7859 36.4016C20.2614 35.8772 19.9042 35.209 19.7596 34.4816C19.6149 33.7542 19.6891 33.0002 19.973 32.3149C20.2568 31.6297 20.7374 31.044 21.3541 30.632C21.9708 30.2199 22.6958 30 23.4375 30C24.4321 30 25.3859 30.3951 26.0891 31.0984C26.7924 31.8016 27.1875 32.7554 27.1875 33.75Z" fill="#FF8C35"/>
<path d="M52.5 0.9375C51.526 0.93896 50.5648 1.1594 49.6875 1.5825C48.5262 1.02851 47.2275 0.828799 45.9534 1.00828C44.6794 1.18776 43.4864 1.7385 42.5233 2.59174C41.5603 3.44499 40.8699 4.56296 40.5382 5.80614C40.2066 7.04931 40.2484 8.36263 40.6584 9.58219L39.9244 10.3125H39.375C39.1264 10.3125 38.8879 10.4113 38.7121 10.5871C38.5363 10.7629 38.4375 11.0014 38.4375 11.25V13.125H36.5625C36.3139 13.125 36.0754 13.2238 35.8996 13.3996C35.7238 13.5754 35.625 13.8139 35.625 14.0625V15.9534L33.7341 15.9844C33.4882 15.9886 33.2538 16.0892 33.0814 16.2645C32.909 16.4399 32.8125 16.676 32.8125 16.9219V20.625C32.8125 20.834 32.8823 21.037 33.0109 21.2018C33.1395 21.3665 33.3195 21.4836 33.5222 21.5344L37.2722 22.4719C37.4373 22.5133 37.6105 22.5091 37.7734 22.4595C37.9362 22.41 38.0825 22.317 38.1966 22.1906L45.6216 13.9406C46.9989 14.2076 48.4255 14.0273 49.6931 13.4259C49.71 13.4334 49.7241 13.4447 49.7409 13.4522L49.7025 14.5594L49.0744 15.1031C48.9789 15.1857 48.901 15.2867 48.8455 15.4001C48.79 15.5135 48.7579 15.6369 48.7513 15.763C48.7446 15.889 48.7635 16.0151 48.8068 16.1337C48.8501 16.2523 48.9168 16.361 49.0031 16.4531L50.2575 17.7928L49.0247 19.0256C48.8489 19.2014 48.7502 19.4398 48.7502 19.6884C48.7502 19.937 48.8489 20.1754 49.0247 20.3512L50.2369 21.5625L49.0247 22.7747C48.9266 22.8727 48.8515 22.9913 48.8048 23.1219C48.7581 23.2525 48.7409 23.3918 48.7546 23.5298C48.7682 23.6678 48.8123 23.8011 48.8836 23.92C48.955 24.0389 49.0518 24.1405 49.1672 24.2175L51.9797 26.0925C52.1338 26.1952 52.3148 26.25 52.5 26.25C52.6007 26.2499 52.7007 26.2338 52.7963 26.2022L55.6088 25.2647C55.7955 25.2025 55.9579 25.0831 56.073 24.9234C56.1881 24.7637 56.25 24.5718 56.25 24.375V12.8794C57.3939 12.0801 58.2532 10.937 58.7032 9.61611C59.1531 8.2952 59.1703 6.86524 58.7522 5.53389C58.3342 4.20254 57.5026 3.03912 56.3783 2.21257C55.254 1.38602 53.8954 0.939374 52.5 0.9375ZM45.5625 12C45.3932 11.9507 45.2133 11.9501 45.0437 11.9983C44.874 12.0466 44.7214 12.1417 44.6034 12.2728L37.1812 20.5228L34.6875 19.8928V17.8444L36.5784 17.8125C36.8243 17.8083 37.0587 17.7077 37.2311 17.5323C37.4035 17.357 37.5 17.1209 37.5 16.875V15H39.375C39.6236 15 39.8621 14.9012 40.0379 14.7254C40.2137 14.5496 40.3125 14.3111 40.3125 14.0625V12.1875C40.5611 12.1874 40.7995 12.0886 40.9753 11.9128L42.4134 10.4747C42.5475 10.3395 42.6373 10.1668 42.6707 9.97939C42.7042 9.79199 42.6799 9.59884 42.6009 9.42562C42.237 8.63956 42.0994 7.76756 42.2038 6.90763C42.3081 6.04769 42.6502 5.2339 43.1916 4.5577C43.7331 3.8815 44.4523 3.36968 45.2686 3.07977C46.0849 2.78986 46.9659 2.73334 47.8125 2.91656C46.6109 4.13671 45.9374 5.78049 45.9374 7.49297C45.9374 9.20545 46.6109 10.8492 47.8125 12.0694C47.068 12.2292 46.2958 12.2054 45.5625 12ZM54.8438 11.5584C54.7014 11.6406 54.5831 11.7588 54.5008 11.9012C54.4186 12.0435 54.3752 12.205 54.375 12.3694V23.6991L52.6387 24.2775L51.1594 23.2922L52.2253 22.2253C52.4011 22.0495 52.4998 21.8111 52.4998 21.5625C52.4998 21.3139 52.4011 21.0755 52.2253 20.8997L51.0131 19.6875L52.2253 18.4753C52.3975 18.3033 52.496 18.071 52.5 17.8276C52.504 17.5843 52.4133 17.3489 52.2469 17.1712L51.0384 15.8822L51.2381 15.7088C51.3358 15.6245 51.415 15.5209 51.4708 15.4046C51.5266 15.2883 51.5578 15.1617 51.5625 15.0328L51.6375 12.8578C51.6444 12.6562 51.5861 12.4577 51.4713 12.2919C51.3565 12.126 51.1912 12.0016 51 11.9372C49.9847 11.5943 49.1176 10.9138 48.5431 10.0093C47.9685 9.10466 47.7213 8.03052 47.8426 6.96579C47.9638 5.90105 48.4462 4.91 49.2094 4.15774C49.9726 3.40548 50.9705 2.93744 52.0369 2.83158C53.1033 2.72572 54.1737 2.98844 55.07 3.57598C55.9662 4.16351 56.634 5.04037 56.9622 6.06049C57.2904 7.08062 57.2592 8.1824 56.8737 9.18229C56.4882 10.1822 55.7718 11.0198 54.8438 11.5556V11.5584Z" fill="#FF8C35"/>
<path d="M52.5 7.5C53.5355 7.5 54.375 6.66053 54.375 5.625C54.375 4.58947 53.5355 3.75 52.5 3.75C51.4645 3.75 50.625 4.58947 50.625 5.625C50.625 6.66053 51.4645 7.5 52.5 7.5Z" fill="#FF8C35"/>
</g>
<defs>
<clipPath id="clip0_20_53984">
<rect width="60" height="60" fill="white"/>
</clipPath>
</defs>
</svg>
