<svg width="60" height="60" viewBox="0 0 60 60" fill="none" xmlns="http://www.w3.org/2000/svg">
<g clip-path="url(#clip0_20_53994)">
<path d="M57 41V38H58C59.1046 38 60 37.1046 60 36V35C60 32.7909 58.2091 31 56 31H49.51C48.2205 28.5427 45.6752 27.0024 42.9 27H31.9C29.7803 26.894 27.714 27.6865 26.209 29.183C26.047 29.061 25.886 28.937 25.736 28.806C22.7323 26.2861 18.9202 24.9346 15 25H11V7.00004C11 6.44775 11.4477 6.00004 12 6.00004H17.34C17.6085 5.99944 17.8657 6.10768 18.053 6.30004L19.474 7.72104C18.5219 8.94456 18.0034 10.4498 18 12C18 13.1046 18.8954 14 20 14H30C31.0223 13.9883 31.8777 13.221 32 12.206C32.0536 8.633 29.4489 5.57437 25.913 5.05804C25.69 5.03004 25.467 5.01604 25.244 5.00904L22.3 2.05304C20.9876 0.733186 19.2013 -0.00617591 17.34 3.88645e-05H12C8.13583 0.0044475 5.00441 3.13587 5 7.00004V25H4C1.79086 25 0 26.7909 0 29V30C0 31.1046 0.89543 32 2 32H3V41C3.00446 45.4302 5.26608 49.5528 9 51.937V54H8C6.34315 54 5 55.3432 5 57V58H1C0.447715 58 0 58.4478 0 59C0 59.5523 0.447715 60 1 60H59C59.5523 60 60 59.5523 60 59C60 58.4478 59.5523 58 59 58H55V57C55 55.3432 53.6569 54 52 54H51V51.937C54.7339 49.5528 56.9955 45.4302 57 41ZM58 35V36H50.4V34.5C50.3999 33.9962 50.3486 33.4936 50.247 33H56C57.1046 33 58 33.8955 58 35ZM47.977 32.383C48.2565 33.0538 48.4002 33.7734 48.4 34.5V46C48.4 46.5523 47.9523 47 47.4 47H40C39.4477 47 39 46.5523 39 46V34.5C39.0013 32.411 38.1285 30.4166 36.593 29H42.9C45.12 28.9997 47.1225 30.3341 47.977 32.383ZM35 34.5C35.0034 34.0389 34.9125 33.5819 34.733 33.157C34.1953 31.8538 32.9258 31.0026 31.516 31C30.312 30.9855 29.1236 30.7263 28.023 30.238C29.6686 28.8954 31.9403 28.6202 33.8589 29.5311C35.7775 30.442 37.0002 32.3762 37 34.5V46C37.0033 46.3415 37.0656 46.6798 37.184 47H36C35.4477 47 35 46.5523 35 46V34.5ZM30 12H20C20 9.23862 22.2386 7.00004 25 7.00004C27.7614 7.00004 30 9.23862 30 12ZM7 7.00004C7.00331 4.23999 9.23995 2.00335 12 2.00004H17.34C18.6691 1.99607 19.9445 2.52395 20.882 3.46604L22.782 5.37104C22.1134 5.59316 21.4823 5.91513 20.91 6.32604L19.467 4.88304C18.9045 4.31623 18.1385 3.99823 17.34 4.00004H12C10.3431 4.00004 9 5.34319 9 7.00004V25H7V7.00004ZM2 29C2 27.8955 2.89543 27 4 27H15C18.437 26.9347 21.7823 28.111 24.422 30.313C26.2866 31.926 28.6376 32.8681 31.1 32.989C31.5916 32.9454 32.0826 33.0783 32.485 33.364C32.8126 33.6506 33.0003 34.0648 33 34.5V36H32C28.5623 36.0621 25.2169 34.8855 22.575 32.685C20.5812 30.9545 18.0301 30.0012 15.39 30H2V29ZM5 41V32H15.39C17.5477 32.0011 19.6327 32.7796 21.263 34.193C24.2676 36.7121 28.0796 38.0637 32 38H33V46C33 47.6569 34.3431 49 36 49H47.4C49.0569 49 50.4 47.6569 50.4 46V38H55V41C54.9928 47.0722 50.0722 51.9929 44 52H16C9.92784 51.9929 5.00716 47.0722 5 41ZM18.182 54H41.818C43.052 54.9791 43.8206 56.4293 43.938 58H16.061C16.1793 56.4293 16.9481 54.9793 18.182 54ZM7 58V57C7 56.4478 7.44772 56 8 56H10C10.5523 56 11 55.5523 11 55V53C12.4206 53.5892 13.9351 53.9197 15.472 53.976C14.6445 55.1649 14.1532 56.5552 14.05 58H7ZM50 56H52C52.5523 56 53 56.4478 53 57V58H45.955C45.8495 56.554 45.3565 55.1629 44.528 53.973C46.0647 53.9177 47.5792 53.5882 49 53V55C49 55.5523 49.4477 56 50 56Z" fill="#004274"/>
<path d="M17 49C17 48.4477 16.5523 48 16 48C12.1358 47.9956 9.00441 44.8642 9 41C9 40.4477 8.55228 40 8 40C7.44772 40 7 40.4477 7 41C7.00551 45.9683 11.0317 49.9945 16 50C16.5523 50 17 49.5523 17 49Z" fill="#004274"/>
<path d="M24 17V22C24 22.5523 24.4477 23 25 23C25.5523 23 26 22.5523 26 22V17C26 16.4477 25.5523 16 25 16C24.4477 16 24 16.4477 24 17Z" fill="#FF8C35"/>
<path d="M20.071 16.628L18.071 21.628C17.8656 22.1411 18.1149 22.7236 18.628 22.929C19.1411 23.1345 19.7236 22.8851 19.929 22.372L21.929 17.372C22.1345 16.8589 21.8851 16.2765 21.372 16.071C20.8589 15.8656 20.2765 16.1149 20.071 16.628Z" fill="#FF8C35"/>
<path d="M29.929 16.628C29.7236 16.1149 29.1411 15.8656 28.628 16.071C28.1149 16.2765 27.8656 16.8589 28.071 17.372L30.071 22.372C30.2039 22.7039 30.5038 22.9397 30.8577 22.9905C31.2115 23.0414 31.5657 22.8996 31.7867 22.6185C32.0076 22.3375 32.0619 21.9599 31.929 21.628L29.929 16.628Z" fill="#FF8C35"/>
</g>
<defs>
<clipPath id="clip0_20_53994">
<rect width="60" height="60" fill="white"/>
</clipPath>
</defs>
</svg>
