<svg width="30" height="30" viewBox="0 0 30 30" fill="none" xmlns="http://www.w3.org/2000/svg">
<g clip-path="url(#clip0_5_3223)">
<path d="M8.74992 10.0001C8.74992 11.3807 7.63069 12.4999 6.25008 12.4999C4.86923 12.4999 3.75 11.3807 3.75 10.0001C3.75 8.61923 4.86923 7.5 6.25008 7.5C7.63069 7.5 8.74992 8.61923 8.74992 10.0001Z" fill="#FF8C35"/>
<path d="M26.25 3.75H3.75C1.68251 3.75 0 5.43251 0 7.5V22.5C0 22.57 0.017395 22.6362 0.021286 22.7062C0.00366211 22.8561 0.0112152 23.0074 0.0661468 23.15C0.374908 24.9076 1.90498 26.25 3.75 26.25H26.25C28.3175 26.25 30 24.5675 30 22.5V7.5C30 5.43251 28.3175 3.75 26.25 3.75ZM3.75 6.25008H26.25C26.9387 6.25008 27.4999 6.81129 27.4999 7.5V17.4239L20.9251 10.8488C20.07 9.99367 18.6788 9.99367 17.8251 10.8488L11.8751 16.7988L10.2999 15.2238C9.44504 14.3687 8.05367 14.3687 7.19994 15.2238L2.50008 19.9237V7.5C2.50008 6.81129 3.06129 6.25008 3.75 6.25008V6.25008Z" fill="#004274"/>
</g>
<defs>
<clipPath id="clip0_5_3223">
<rect width="30" height="30" fill="white"/>
</clipPath>
</defs>
</svg>
